<svg xmlns="http://www.w3.org/2000/svg" width="2000" height="2000" viewBox="0 0 1500 1500"><defs><clipPath id="g"><path d="M0 1.3h1500V845H0Zm0 0"/></clipPath><clipPath id="i"><path d="M0 .3h1500V844H0Zm0 0"/></clipPath><clipPath id="c"><path d="M0 .3h1500V844H0Zm0 0"/></clipPath><clipPath id="d"><path d="M0 0h1500v844H0z"/></clipPath><clipPath id="b"><path d="M0 0h1500v844H0z"/></clipPath><clipPath id="l"><path d="M0 14.313h1500V844H0Zm0 0"/></clipPath><clipPath id="k"><path d="M0 0h1500v844H0z"/></clipPath><clipPath id="h"><path d="M0 0h1500v844H0z"/></clipPath><clipPath id="f"><path d="M0 0h1500v845H0z"/></clipPath><clipPath id="n"><path d="M169 .96h1160V607H169Zm0 0"/></clipPath><clipPath id="p"><path d="M0 0h1160v607H0z"/></clipPath><clipPath id="s"><path d="M1 .32h20.68v6.961H1Zm0 0"/></clipPath><clipPath id="r"><path d="M0 0h22v8H0z"/></clipPath><clipPath id="t"><path d="M170 .96h1107V607H170Zm0 0"/></clipPath><clipPath id="w"><path d="M.16 1H1106.8v605H.16Zm0 0"/></clipPath><clipPath id="v"><path d="M0 0h1107v607H0z"/></clipPath><clipPath id="z"><path d="M1 .32h20.68v6.961H1Zm0 0"/></clipPath><clipPath id="y"><path d="M0 0h22v8H0z"/></clipPath><clipPath id="A"><path d="M196 .96h1081V607H196Zm0 0"/></clipPath><clipPath id="D"><path d="M.078 1h1080.723v605H.078Zm0 0"/></clipPath><clipPath id="C"><path d="M0 0h1081v607H0z"/></clipPath><clipPath id="G"><path d="M1 .32h20.68v6.961H1Zm0 0"/></clipPath><clipPath id="F"><path d="M0 0h22v8H0z"/></clipPath><clipPath id="H"><path d="M854 .96h423V332H854Zm0 0"/></clipPath><clipPath id="K"><path d="M1 1h421.8v330.441H1Zm0 0"/></clipPath><clipPath id="J"><path d="M0 0h423v332H0z"/></clipPath><clipPath id="L"><path d="M254 .96h748V605H254Zm0 0"/></clipPath><clipPath id="O"><path d="M.398 1H748v603H.398Zm0 0"/></clipPath><clipPath id="N"><path d="M0 0h748v605H0z"/></clipPath><clipPath id="R"><path d="M.121.36H409.56V321H.12Zm0 0"/></clipPath><clipPath id="Q"><path d="M0 0h410v322H0z"/></clipPath><clipPath id="U"><path d="M1 .32h20.68v6.961H1Zm0 0"/></clipPath><clipPath id="T"><path d="M0 0h22v8H0z"/></clipPath><clipPath id="V"><path d="M854 .96h423V332H854Zm0 0"/></clipPath><clipPath id="Y"><path d="M1 1h421.8v330.441H1Zm0 0"/></clipPath><clipPath id="X"><path d="M0 0h423v332H0z"/></clipPath><clipPath id="Z"><path d="M291 .96h680V598H291Zm0 0"/></clipPath><clipPath id="ac"><path d="M1 1h678.32v596.84H1Zm0 0"/></clipPath><clipPath id="ab"><path d="M0 0h680v598H0z"/></clipPath><clipPath id="af"><path d="M.121.36H409.56V321H.12Zm0 0"/></clipPath><clipPath id="ae"><path d="M0 0h410v322H0z"/></clipPath><clipPath id="ai"><path d="M1 .32h20.68v6.961H1Zm0 0"/></clipPath><clipPath id="ah"><path d="M0 0h22v8H0z"/></clipPath><clipPath id="aj"><path d="M854 .96h423V332H854Zm0 0"/></clipPath><clipPath id="am"><path d="M1 1h421.8v330.441H1Zm0 0"/></clipPath><clipPath id="al"><path d="M0 0h423v332H0z"/></clipPath><clipPath id="ap"><path d="M.441.2H434v526.32H.441Zm0 0"/></clipPath><clipPath id="ao"><path d="M0 0h435v527H0z"/></clipPath><clipPath id="as"><path d="M.121.36H409.56V321H.12Zm0 0"/></clipPath><clipPath id="ar"><path d="M0 0h410v322H0z"/></clipPath><clipPath id="av"><path d="M1 1h99v148.602H1Zm0 0"/></clipPath><clipPath id="au"><path d="M0 0h101v150H0z"/></clipPath><clipPath id="ay"><path d="M1 1h87v131.8H1Zm0 0"/></clipPath><clipPath id="ax"><path d="M0 0h89v133H0z"/></clipPath><clipPath id="aB"><path d="M1 1h135.2v246H1Zm0 0"/></clipPath><clipPath id="aA"><path d="M0 0h137v248H0z"/></clipPath><clipPath id="aC"><path d="M203 .96h1113V607H203Zm0 0"/></clipPath><clipPath id="aF"><path d="M.04 1H1112v605H.04Zm0 0"/></clipPath><clipPath id="aE"><path d="M0 0h1113v607H0z"/></clipPath><clipPath id="aI"><path d="M1 1h269v148.8H1Zm0 0"/></clipPath><clipPath id="aH"><path d="M0 0h271v150H0z"/></clipPath><clipPath id="aJ"><path d="M203 .96h1113V607H203Zm0 0"/></clipPath><clipPath id="aM"><path d="M.04 1H1112v605H.04Zm0 0"/></clipPath><clipPath id="aL"><path d="M0 0h1113v607H0z"/></clipPath><clipPath id="aP"><path d="M.52 1H1112v605H.52Zm0 0"/></clipPath><clipPath id="aO"><path d="M0 0h1113v607H0z"/></clipPath><clipPath id="aQ"><path d="M360 .96h956V607H360Zm0 0"/></clipPath><clipPath id="aS"><path d="M0 0h956v607H0z"/></clipPath><clipPath id="aU"><path d="M0 0h956v607H0z"/></clipPath><clipPath id="aV"><path d="M550 .96h722V593H550Zm0 0"/></clipPath><clipPath id="aY"><path d="M.078 1H721v591H.078Zm0 0"/></clipPath><clipPath id="aX"><path d="M0 0h722v593H0z"/></clipPath><clipPath id="aZ"><path d="M631 .96h545V554H631Zm0 0"/></clipPath><clipPath id="bc"><path d="M1 1h543.762v552H1Zm0 0"/></clipPath><clipPath id="bb"><path d="M0 0h545v554H0z"/></clipPath><clipPath id="bd"><path d="M753 .96h339V425H753Zm0 0"/></clipPath><clipPath id="bg"><path d="M.36 1h338.402v423.559H.359Zm0 0"/></clipPath><clipPath id="bf"><path d="M0 0h339v425H0z"/></clipPath><clipPath id="bj"><path d="M.04.8h369.6V212.72H.04Zm0 0"/></clipPath><clipPath id="bi"><path d="M0 0h370v213H0z"/></clipPath><clipPath id="bm"><path d="M.398 1h166.32v253H.399Zm0 0"/></clipPath><clipPath id="bl"><path d="M0 0h167v255H0z"/></clipPath><clipPath id="bp"><path d="M.238 1H492v180.602H.238Zm0 0"/></clipPath><clipPath id="bo"><path d="M0 0h492v182H0z"/></clipPath><clipPath id="bs"><path d="M.238 1H492v180.602H.238Zm0 0"/></clipPath><clipPath id="br"><path d="M0 0h492v182H0z"/></clipPath><clipPath id="bv"><path d="M.36.281h348.48V87.88H.36Zm0 0"/></clipPath><clipPath id="bu"><path d="M0 0h349v88H0z"/></clipPath><clipPath id="by"><path d="M.2 1H492v180H.2Zm0 0"/></clipPath><clipPath id="bx"><path d="M0 0h493v182H0z"/></clipPath><clipPath id="bB"><path d="M.078 1h348.48v87.441H.079Zm0 0"/></clipPath><clipPath id="bA"><path d="M0 0h349v89H0z"/></clipPath><clipPath id="bC"><path d="M400.215 226.95h175.683v175.679H400.215Zm0 0"/></clipPath><clipPath id="bD"><path d="M934.004 226.95h175.68v175.679h-175.68Zm0 0"/></clipPath><clipPath id="e"><path d="M0 0h1500v1176H0z"/></clipPath><mask id="j"><g filter="url(#a)"><g clip-path="url(#b)"><g clip-path="url(#c)"><g clip-path="url(#d)"><path d="M164.419 465.3v20.703H78.09v-111.5h84.265v20.703h-58.625v24.22h51.766v20.062H103.73V465.3ZM316.06 374.503l-48.266 111.5h-25.485l-48.109-111.5h27.875l33.937 79.64 34.391-79.64ZM437.896 465.3v20.703h-86.329v-111.5h84.266v20.703h-58.625v24.22h51.766v20.062h-51.766V465.3ZM584.599 374.503v111.5H563.41l-55.593-67.687v67.687h-25.485v-111.5h21.344l55.437 67.703v-67.703ZM658.013 395.534h-35.672v-21.03h97.157v21.03h-35.672v90.47h-25.813ZM811.244 487.91q-17.363.002-31.297-7.485-13.94-7.482-21.828-20.625c-5.25-8.758-7.875-18.61-7.875-29.547q0-16.405 7.875-29.547 7.888-13.137 21.828-20.625 13.934-7.483 31.297-7.484 17.355.001 31.218 7.484 13.857 7.488 21.813 20.625 7.969 13.142 7.969 29.547c0 10.938-2.657 20.79-7.97 29.547q-7.955 13.143-21.812 20.625-13.863 7.486-31.218 7.484m0-21.97q9.872 0 17.828-4.546c5.312-3.031 9.476-7.25 12.5-12.656q4.547-8.124 4.547-18.485 0-10.359-4.547-18.469c-3.024-5.414-7.188-9.632-12.5-12.656q-7.956-4.547-17.828-4.547-9.877 0-17.844 4.547-7.969 4.536-12.516 12.656c-3.023 5.407-4.53 11.563-4.53 18.47 0 6.905 1.507 13.07 4.53 18.484q4.547 8.11 12.516 12.656 7.967 4.547 17.844 4.547M915.564 374.503h25.812v90.469h55.907v21.031h-81.72ZM1089.658 487.91q-17.362.002-31.297-7.485-13.94-7.482-21.828-20.625c-5.25-8.758-7.875-18.61-7.875-29.547q0-16.405 7.875-29.547 7.888-13.137 21.828-20.625 13.936-7.483 31.297-7.484 17.356.001 31.219 7.484 13.857 7.488 21.812 20.625 7.97 13.142 7.97 29.547c0 10.938-2.657 20.79-7.97 29.547q-7.956 13.143-21.812 20.625-13.863 7.486-31.219 7.484m0-21.97q9.872 0 17.828-4.546 7.968-4.547 12.5-12.656 4.547-8.124 4.547-18.485 0-10.359-4.547-18.469-4.532-8.12-12.5-12.656-7.956-4.547-17.828-4.547c-6.586 0-12.531 1.516-17.844 4.547q-7.968 4.536-12.515 12.656c-3.024 5.407-4.531 11.563-4.531 18.47 0 6.905 1.507 13.07 4.53 18.484q4.548 8.11 12.516 12.656c5.313 3.031 11.258 4.547 17.844 4.547M1269.322 428.503h23.578v45.235c-6.054 4.562-13.062 8.07-21.031 10.515q-11.953 3.656-24.047 3.656-17.36 0-31.219-7.406-13.863-7.405-21.75-20.547-7.875-13.138-7.875-29.703 0-16.56 7.875-29.703c5.258-8.758 12.563-15.61 21.907-20.547q14.013-7.406 31.53-7.406 14.654.002 26.595 4.937 11.952 4.94 20.078 14.329l-16.563 15.296c-7.969-8.382-17.578-12.578-28.828-12.578q-10.675.002-18.953 4.47c-5.523 2.968-9.824 7.163-12.906 12.577q-4.627 8.111-4.625 18.625-.002 10.36 4.625 18.485 4.624 8.11 12.828 12.656 8.203 4.547 18.703 4.547 11.155 0 20.078-4.782ZM1394.187 446.503v39.5h-25.797v-39.828l-43.172-71.672h27.407l29.78 49.547 29.782-49.547h25.328Zm0 0"/></g></g></g></g></mask><mask id="o"><g filter="url(#a)"><path fill-opacity=".17" d="M-330-654h2160v2160H-330z"/></g></mask><mask id="q"><g filter="url(#a)"><path fill-opacity=".17" d="M-330-654h2160v2160H-330z"/></g></mask><mask id="u"><g filter="url(#a)"><path fill-opacity=".17" d="M-330-654h2160v2160H-330z"/></g></mask><mask id="x"><g filter="url(#a)"><path fill-opacity=".17" d="M-330-654h2160v2160H-330z"/></g></mask><mask id="B"><g filter="url(#a)"><path fill-opacity=".17" d="M-330-654h2160v2160H-330z"/></g></mask><mask id="E"><g filter="url(#a)"><path fill-opacity=".37" d="M-330-654h2160v2160H-330z"/></g></mask><mask id="I"><g filter="url(#a)"><path fill-opacity=".37" d="M-330-654h2160v2160H-330z"/></g></mask><mask id="M"><g filter="url(#a)"><path fill-opacity=".37" d="M-330-654h2160v2160H-330z"/></g></mask><mask id="P"><g filter="url(#a)"><path fill-opacity=".37" d="M-330-654h2160v2160H-330z"/></g></mask><mask id="S"><g filter="url(#a)"><path fill-opacity=".37" d="M-330-654h2160v2160H-330z"/></g></mask><mask id="W"><g filter="url(#a)"><path fill-opacity=".37" d="M-330-654h2160v2160H-330z"/></g></mask><mask id="aa"><g filter="url(#a)"><path fill-opacity=".37" d="M-330-654h2160v2160H-330z"/></g></mask><mask id="ad"><g filter="url(#a)"><path fill-opacity=".37" d="M-330-654h2160v2160H-330z"/></g></mask><mask id="ag"><g filter="url(#a)"><path fill-opacity=".37" d="M-330-654h2160v2160H-330z"/></g></mask><mask id="ak"><g filter="url(#a)"><path fill-opacity=".37" d="M-330-654h2160v2160H-330z"/></g></mask><mask id="an"><g filter="url(#a)"><path fill-opacity=".37" d="M-330-654h2160v2160H-330z"/></g></mask><mask id="aq"><g filter="url(#a)"><path fill-opacity=".37" d="M-330-654h2160v2160H-330z"/></g></mask><mask id="at"><g filter="url(#a)"><path fill-opacity=".24" d="M-330-654h2160v2160H-330z"/></g></mask><mask id="aw"><g filter="url(#a)"><path fill-opacity=".24" d="M-330-654h2160v2160H-330z"/></g></mask><mask id="az"><g filter="url(#a)"><path fill-opacity=".47" d="M-330-654h2160v2160H-330z"/></g></mask><mask id="aD"><g filter="url(#a)"><path fill-opacity=".47" d="M-330-654h2160v2160H-330z"/></g></mask><mask id="aG"><g filter="url(#a)"><path fill-opacity=".47" d="M-330-654h2160v2160H-330z"/></g></mask><mask id="aK"><g filter="url(#a)"><path fill-opacity=".67" d="M-330-654h2160v2160H-330z"/></g></mask><mask id="aN"><g filter="url(#a)"><path fill-opacity=".67" d="M-330-654h2160v2160H-330z"/></g></mask><mask id="aR"><g filter="url(#a)"><path fill-opacity=".67" d="M-330-654h2160v2160H-330z"/></g></mask><mask id="aT"><g filter="url(#a)"><path fill-opacity=".37" d="M-330-654h2160v2160H-330z"/></g></mask><mask id="aW"><g filter="url(#a)"><path fill-opacity=".37" d="M-330-654h2160v2160H-330z"/></g></mask><mask id="ba"><g filter="url(#a)"><path fill-opacity=".37" d="M-330-654h2160v2160H-330z"/></g></mask><mask id="be"><g filter="url(#a)"><path fill-opacity=".37" d="M-330-654h2160v2160H-330z"/></g></mask><mask id="bh"><g filter="url(#a)"><path fill-opacity=".76" d="M-330-654h2160v2160H-330z"/></g></mask><mask id="bk"><g filter="url(#a)"><path fill-opacity=".68" d="M-330-654h2160v2160H-330z"/></g></mask><mask id="bn"><g filter="url(#a)"><path fill-opacity=".27" d="M-330-654h2160v2160H-330z"/></g></mask><mask id="bq"><g filter="url(#a)"><path fill-opacity=".27" d="M-330-654h2160v2160H-330z"/></g></mask><mask id="bt"><g filter="url(#a)"><path fill-opacity=".72" d="M-330-654h2160v2160H-330z"/></g></mask><mask id="bw"><g filter="url(#a)"><path fill-opacity=".27" d="M-330-654h2160v2160H-330z"/></g></mask><mask id="bz"><g filter="url(#a)"><path fill-opacity=".55" d="M-330-654h2160v2160H-330z"/></g></mask><linearGradient id="m" x1="934.398" x2="934.398" y1="-391.28" y2="674.212" gradientTransform="matrix(.77846 0 0 .7787 35.018 318.997)" gradientUnits="userSpaceOnUse"><stop offset="0" stop-color="#065f46"/><stop offset=".25" stop-color="#065f46"/><stop offset=".375" stop-color="#065f46"/><stop offset=".383" stop-color="#065f46"/><stop offset=".387" stop-color="#086145"/><stop offset=".391" stop-color="#096245"/><stop offset=".395" stop-color="#0c6444"/><stop offset=".398" stop-color="#0e6643"/><stop offset=".402" stop-color="#106742"/><stop offset=".406" stop-color="#126941"/><stop offset=".41" stop-color="#146b41"/><stop offset=".414" stop-color="#166d40"/><stop offset=".418" stop-color="#186f3f"/><stop offset=".422" stop-color="#1a713e"/><stop offset=".426" stop-color="#1c723d"/><stop offset=".43" stop-color="#1f743d"/><stop offset=".434" stop-color="#21763c"/><stop offset=".438" stop-color="#23783b"/><stop offset=".441" stop-color="#257a3a"/><stop offset=".445" stop-color="#277c39"/><stop offset=".449" stop-color="#297d39"/><stop offset=".453" stop-color="#2b7f38"/><stop offset=".457" stop-color="#2d8137"/><stop offset=".461" stop-color="#2f8336"/><stop offset=".465" stop-color="#328535"/><stop offset=".469" stop-color="#348635"/><stop offset=".473" stop-color="#368834"/><stop offset=".477" stop-color="#388a33"/><stop offset=".48" stop-color="#3a8c32"/><stop offset=".484" stop-color="#3c8e31"/><stop offset=".488" stop-color="#3e9031"/><stop offset=".492" stop-color="#409130"/><stop offset=".496" stop-color="#42932f"/><stop offset=".5" stop-color="#44952e"/><stop offset=".504" stop-color="#47972d"/><stop offset=".508" stop-color="#49992d"/><stop offset=".512" stop-color="#4b9b2c"/><stop offset=".516" stop-color="#4d9c2b"/><stop offset=".52" stop-color="#4f9e2a"/><stop offset=".523" stop-color="#51a029"/><stop offset=".527" stop-color="#53a229"/><stop offset=".531" stop-color="#55a428"/><stop offset=".535" stop-color="#57a527"/><stop offset=".539" stop-color="#5aa726"/><stop offset=".543" stop-color="#5ca925"/><stop offset=".547" stop-color="#5eab25"/><stop offset=".551" stop-color="#60ad24"/><stop offset=".555" stop-color="#62af23"/><stop offset=".559" stop-color="#64b022"/><stop offset=".563" stop-color="#66b221"/><stop offset=".566" stop-color="#68b421"/><stop offset=".57" stop-color="#6ab620"/><stop offset=".574" stop-color="#6cb81f"/><stop offset=".578" stop-color="#6fb91e"/><stop offset=".582" stop-color="#71bb1d"/><stop offset=".586" stop-color="#73bd1d"/><stop offset=".59" stop-color="#75bf1c"/><stop offset=".594" stop-color="#77c11b"/><stop offset=".598" stop-color="#79c31a"/><stop offset=".602" stop-color="#7bc419"/><stop offset=".605" stop-color="#7dc619"/><stop offset=".609" stop-color="#7fc818"/><stop offset=".613" stop-color="#82ca17"/><stop offset=".617" stop-color="#84cc16"/><stop offset=".625" stop-color="#84cc16"/><stop offset=".75" stop-color="#84cc16"/><stop offset="1" stop-color="#84cc16"/></linearGradient><filter id="a" width="100%" height="100%" x="0%" y="0%"><feColorMatrix color-interpolation-filters="sRGB" values="0 0 0 0 1 0 0 0 0 1 0 0 0 0 1 0 0 0 1 0"/></filter></defs><g clip-path="url(#e)" transform="translate(0 324)"><g clip-path="url(#f)" transform="translate(0 331)"><g clip-path="url(#g)"><g clip-path="url(#h)" transform="translate(0 1)"><g clip-path="url(#i)" mask="url(#j)"><g clip-path="url(#k)"><g clip-path="url(#l)"><path fill="url(#m)" d="M0 14.313V844h1500V14.313Zm0 0"/></g></g></g></g></g></g><path fill="#052e16" d="M1328.988 276.348c-7.047-69.36-33.738-171.578-126.199-231.133a186 186 0 0 0-2.781-1.766c-52.09-32.738-115.438-48.781-176.313-39.84-66.367 9.735-125.875 48.043-172.851 95.91-39.203 39.95-70.762 86.481-100.82 133.825l.109.168-.098.136-.105-.164-11.614-18.394a585 585 0 0 0-2.718-4.16c-25.828-39.512-53.407-77.793-86.395-111.41-46.984-47.875-106.492-86.18-172.86-95.918-60.874-8.942-124.222 7.101-176.312 39.843-.937.586-1.86 1.172-2.785 1.766-92.457 59.559-119.152 161.777-126.195 231.137-3.563 35.105 5.176 89.746 11.832 111.238C203.746 454.957 245.84 516.62 304.66 555.55c60.785 40.219 136.176 59.699 207.727 45.804 71.543-13.894 143.379-53.18 188.25-110.605 14.597-18.672 31.703-40.285 49.386-61.387 17.676 21.106 34.786 42.715 49.383 61.387 44.88 57.426 116.707 96.715 188.25 110.605 71.547 13.895 146.946-5.593 207.727-45.804 58.82-38.922 100.914-100.59 121.777-167.965 6.656-21.492 15.39-76.14 11.832-111.238Zm-651.59 48.906c-20.656 28.484-61.773 81.36-74.195 93.473-36.144 35.238-91.066 46.683-140.617 37.027-49.55-9.649-93.488-43.254-117.383-87.719-22.09-41.117-26.984-92.258-8.305-135.023 18.684-42.774 62.278-74.88 108.954-75.242 40.628-.317 77.976 21.648 110.414 46.113 45.789 34.535 86.675 75.539 121.132 121.379q.078-.104.145-.203c0 .14.012.28.012.421-.043-.074-.106-.14-.157-.214Zm477.446 42.789c-23.903 44.469-67.84 78.07-117.387 87.715-49.55 9.652-104.469-1.79-140.613-37.024-12.407-12.097-53.395-64.808-74.09-93.32-.04-.05-.074-.101-.113-.152.039-.051.078-.11.125-.16 34.425-45.774 75.273-86.723 121.007-121.22 32.438-24.464 69.79-46.429 110.422-46.112 46.672.367 90.266 32.468 108.953 75.242 18.676 42.765 13.782 93.914-8.304 135.023Zm0 0"/><g clip-path="url(#n)" mask="url(#o)"><g clip-path="url(#p)" transform="translate(169)"><path fill="#065f46" d="M1114.902 426.969c-12.894 17.308-26.418 33.875-42.918 47.875-16.144 13.699-33.535 26.508-52.617 35.851-19.074 9.336-39.39 17.399-60.406 21.02-12.453 2.152-25.188 3.89-37.856 4.281-12.886.387-25.898-2.601-38.585-4.637-20.915-3.347-39.915-11.316-59.204-19.851-7.57-3.348-15.113-7.176-21.777-12.098-6.379-4.715-12.957-9.402-18.676-14.941-10.578-10.246-20.687-23.336-19.09-39.059-.023-.613-.015-1.219-.011-1.828-13.168-6.3-25.348-14.55-35.914-24.855-12.407-12.094-53.395-64.809-74.09-93.32-.04-.052-.07-.102-.11-.153.043-.05.079-.106.122-.156 34.43-45.778 75.277-86.723 121.011-121.22 32.434-24.464 69.785-46.429 110.414-46.112 46.672.367 90.266 32.468 108.953 75.238 18.676 42.766 13.782 93.914-8.304 135.027-13.64 25.38-33.813 47.207-57.832 63.074.355-.03.71-.054 1.066-.09 10.79-1.945 21.258-4.945 31.516-8.816a181.3 181.3 0 0 0 28.297-16.515c10.32-8.622 19.761-18.22 28.328-28.582 10.754-14.868 19.761-30.957 27.324-47.676 7.684-19.75 12.934-40.496 16.207-61.422a467 467 0 0 0 3.055-49.535c.086-9.516-.512-18.977-.785-28.477-.137-4.844-.368-9.676-.582-14.515-.215-4.79.667-9.641 1.085-14.415.965-11.097 4.008-22.546 12.606-30.437a51.2 51.2 0 0 1 18.992-11.07c3.89-1.258 8.024-1.7 12.149-1.512-18.063-27.242-41.946-52.523-73.48-72.836a159 159 0 0 0-2.782-1.77C978.918 10.7 915.57-5.343 854.695 3.597c-66.367 9.739-125.875 48.044-172.851 95.91-39.203 39.95-70.758 86.481-100.82 133.825.042.059.074.113.109.172l-.098.133-.105-.164-11.614-18.395a585 585 0 0 0-2.718-4.16c-25.828-39.508-53.407-77.793-86.395-111.41C433.22 51.645 373.711 13.34 307.343 3.602 246.47-5.34 183.122 10.703 131.032 43.445c-.937.586-1.86 1.172-2.785 1.766C35.79 104.77 9.094 206.988 2.051 276.348c-1.805 17.797-.446 40.625 2.195 61.601a183 183 0 0 1 8.063-24.402c7.03-17.117 14.359-34.246 25.117-49.422 10.324-14.57 21.617-28.762 34.914-40.75 13.191-11.887 27.738-22.844 43.254-31.566 31.078-17.477 64.926-26.91 100.41-29.293 9.691-.649 19.328-.465 28.863.453 10.305-3.29 21.059-5.121 31.985-5.203 40.628-.317 77.976 21.648 110.414 46.113 45.789 34.535 86.675 75.539 121.132 121.375.051-.067.102-.137.145-.203 0 .14.012.281.012.422-.043-.07-.106-.141-.157-.211-20.656 28.48-61.773 81.36-74.195 93.472-36.144 35.235-91.066 46.684-140.617 37.024-49.55-9.645-93.488-43.25-117.383-87.715-13.469-25.07-20.527-53.871-19.766-82.223a184 184 0 0 0-21.953 22.149 215.4 215.4 0 0 0-20.468 35.164c-7.008 18.152-12.036 37.226-15.086 56.453-1.063 9.293-1.84 18.668-2.188 27.98-.422 11.524-.844 23.145-.715 34.672.137 11.856-5.023 22.52-12.867 31.059-2.539 2.765-5.55 5.023-8.828 6.832 17.68 21.297 38.207 40.121 61.332 55.426 60.785 40.218 136.18 59.699 207.727 45.808 71.55-13.898 143.382-53.18 188.254-110.605 14.597-18.676 31.699-40.29 49.386-61.39 17.672 21.109 34.782 42.714 49.38 61.39 44.878 57.426 116.71 96.715 188.253 110.605s146.941-5.593 207.727-45.808c58.82-38.922 100.914-100.586 121.777-167.965 3.828-12.363 8.344-35.688 10.809-59.953-7.61 35.715-22.2 69.984-44.07 99.343Zm0 0"/></g></g><g mask="url(#q)"><g clip-path="url(#r)" transform="translate(1096 424)"><g clip-path="url(#s)"><path fill="#065f46" d="M21.441 2.336A243 243 0 0 1 10.36.48a177 177 0 0 1-9.347 6.633c.355-.035.71-.058 1.066-.09a174 174 0 0 0 19.363-4.687m0 0"/></g></g></g><g clip-path="url(#t)" mask="url(#u)"><g clip-path="url(#v)" transform="translate(170)"><g clip-path="url(#w)"><path fill="#065f46" d="M1032.75 531.094c-23.918 9.707-48.953 14.426-74.586 16.937-10.262 1.004-20.539 1.196-30.82.297-14.067-1.223-28.293-3.137-42.047-6.457a192 192 0 0 1-28.102-9.117c-13.074-5.379-26.023-10.809-38.195-18.016-12.145-7.195-23.453-16.105-34.145-25.27-7.43-6.366-14.507-13.343-20.632-20.988-8.641-10.793-17.059-21.765-23.68-33.933a225 225 0 0 1-3.602-6.957 128 128 0 0 1-10.109-8.856c-12.406-12.097-53.394-64.808-74.09-93.32-.039-.05-.074-.101-.113-.152.047-.051.078-.11.125-.16 34.43-45.774 75.273-86.723 121.008-121.22 32.437-24.464 69.789-46.429 110.414-46.112 46.672.367 90.27 32.468 108.953 75.242 13.332 30.531 14.648 65.328 6.277 97.699 9.672.52 19.352.539 29-.32a122 122 0 0 0 16.367-4.223c7.008-18.762 11.872-38.379 14.965-58.152a467 467 0 0 0 3.055-49.536c.086-9.515-.512-18.976-.785-28.476-.133-4.844-.367-9.676-.582-14.516-.215-4.793.668-9.64 1.086-14.414.965-11.101 4.008-22.547 12.605-30.437a51.2 51.2 0 0 1 18.992-11.07c3.891-1.258 8.024-1.7 12.149-1.516-18.063-27.242-41.946-52.52-73.477-72.836-.93-.598-1.847-1.184-2.785-1.766C977.906 10.711 914.56-5.332 853.684 3.61c-66.368 9.735-125.875 48.043-172.852 95.91-39.203 39.95-70.758 86.481-100.82 133.825.043.058.074.113.11.168l-.099.136-.105-.164-11.613-18.394a585 585 0 0 0-2.72-4.16c-25.823-39.512-53.405-77.793-86.394-111.41-46.972-47.875-106.48-86.18-172.847-95.918C245.469-5.34 182.12 10.703 130.03 43.445c-.937.586-1.86 1.172-2.785 1.766C34.79 104.77 8.094 206.988 1.051 276.348c-.27 2.699-.469 5.52-.598 8.422 8.18-16.864 18.781-31.48 30.402-46.282 9.372-11.93 19.883-22.925 31.543-32.636 15.664-13.043 32.414-25.57 50.754-34.665 19.582-9.707 40.43-17.917 62.02-21.78 12.871-2.305 26.047-4.141 39.144-4.524 11.047-.32 21.832.82 32.766 2.293 10.395 1.394 20.52 2.86 30.469 6.265a243 243 0 0 1 14.047 5.305c34.554 4.492 66.468 23.863 94.672 45.133 45.793 34.535 86.675 75.539 121.132 121.375q.077-.102.149-.203c0 .14.012.281.012.422-.047-.07-.11-.141-.16-.211-20.653 28.48-61.77 81.36-74.196 93.472-36.144 35.235-91.062 46.684-140.613 37.024-49.551-9.645-93.492-43.25-117.387-87.715-13.469-25.07-20.523-53.871-19.762-82.223a183.7 183.7 0 0 0-21.953 22.149 215.4 215.4 0 0 0-20.469 35.164c-7.011 18.152-12.035 37.226-15.09 56.453-1.062 9.293-1.84 18.668-2.183 27.98-.426 11.524-.848 23.145-.719 34.672.137 11.856-5.023 22.52-12.863 31.059-2.54 2.765-5.555 5.023-8.828 6.832 17.68 21.297 38.203 40.121 61.332 55.426 60.785 40.218 136.176 59.699 207.726 45.808 71.547-13.898 143.38-53.18 188.25-110.605 14.598-18.676 31.704-40.29 49.387-61.39 17.676 21.109 34.785 42.714 49.383 61.39 44.875 57.426 116.707 96.715 188.25 110.605s146.945-5.593 207.727-45.808c20.027-13.254 38.117-29.149 54.09-47.012-14.856 8.766-30.493 15.969-46.723 22.55Zm0 0"/></g></g></g><g mask="url(#x)"><g clip-path="url(#y)" transform="translate(1096 424)"><g clip-path="url(#z)"><path fill="#065f46" d="M21.441 2.336A243 243 0 0 1 10.36.48a177 177 0 0 1-9.347 6.633c.355-.035.71-.058 1.066-.09a174 174 0 0 0 19.363-4.687m0 0"/></g></g></g><g clip-path="url(#A)" mask="url(#B)"><g clip-path="url(#C)" transform="translate(196)"><g clip-path="url(#D)"><path fill="#065f46" d="M902.93 592.648c-24.125-6.468-47.64-15.968-69.992-27.062-22.239-11.043-42.036-25.34-61.434-40.785a322 322 0 0 1-44.332-42.871c-27.457-32.196-48.469-68.801-63.703-108.078-13.364-17.059-27.188-35.317-36.715-48.438-.04-.05-.074-.101-.113-.152.047-.051.078-.11.125-.16 34.425-45.774 75.273-86.723 121.007-121.22 32.438-24.464 69.79-46.429 110.414-46.112 46.672.367 90.27 32.468 108.954 75.242 13.332 30.531 14.648 65.328 6.277 97.699 9.668.52 19.352.539 28.996-.32a122 122 0 0 0 16.371-4.223c7.008-18.762 11.871-38.379 14.965-58.152a467 467 0 0 0 3.055-49.536c.086-9.515-.516-18.976-.785-28.476-.137-4.844-.368-9.676-.582-14.516-.215-4.793.667-9.64 1.085-14.414.965-11.101 4.008-22.547 12.606-30.437a51.2 51.2 0 0 1 18.992-11.07c3.89-1.258 8.024-1.7 12.149-1.516-18.063-27.242-41.946-52.52-73.48-72.836a186 186 0 0 0-2.782-1.766C951.918 10.711 888.57-5.332 827.695 3.61c-66.367 9.735-125.875 48.043-172.851 95.91-39.203 39.95-70.762 86.481-100.82 133.825l.109.168-.098.136-.105-.164-11.614-18.394a585 585 0 0 0-2.718-4.16c-25.828-39.512-53.407-77.793-86.395-111.41-46.984-47.875-106.492-86.18-172.86-95.918-60.874-8.942-124.222 7.101-176.312 39.843-.937.586-1.86 1.172-2.785 1.766C50.371 77.984 19.41 123.676.672 169.703a453 453 0 0 1 4.27-3.086c10.03-7.172 20.683-13.426 31.8-18.754 15.063-7.215 30.7-13.695 46.73-18.457 16.579-4.926 33.41-7.414 50.54-9.66 12.34-1.621 24.761-2.398 37.21-2.172 17.173.309 34.383 2.516 51.286 5.418 12.449 2.133 24.738 5.254 36.683 9.383 26.934 9.29 52.997 21.77 75.715 39.074 12.684 9.656 25.098 19.39 36.293 30.758 10.45 10.617 19.727 22.309 28.63 34.234a616 616 0 0 1 81.558 88.813c.05-.067.101-.137.144-.203 0 .14.012.281.012.422-.043-.07-.106-.141-.156-.211-8.074 11.129-19.266 25.98-30.653 40.676.313 3.613.414 7.218.102 10.765-.867 9.918-2.242 19.824-3.82 29.645q-2.264 9.526-8.735 16.597c-3.441 5.313-8.004 9.5-13.695 12.57-7.664 4.055-15.969 6.278-24.629 6.66-6.394.29-12.766-1.253-18.621-3.886-33.809 19.645-75.93 25.04-114.762 17.477-49.55-9.649-93.488-43.254-117.383-87.72-13.468-25.066-20.527-53.866-19.765-82.222a184.3 184.3 0 0 0-21.953 22.153c-7.914 11.027-14.77 22.836-20.47 35.16-7.007 18.156-12.03 37.23-15.085 56.457-1.063 9.289-1.84 18.664-2.184 27.98-.425 11.52-.847 23.145-.718 34.672.136 11.852-5.024 22.516-12.864 31.055-2.543 2.77-5.554 5.027-8.832 6.832 17.684 21.297 38.207 40.125 61.332 55.426 60.786 40.222 136.18 59.703 207.727 45.808 71.55-13.894 143.383-53.18 188.254-110.605 14.597-18.672 31.699-40.285 49.387-61.387 17.675 21.105 34.785 42.715 49.382 61.387 44.875 57.426 116.707 96.715 188.25 110.605 40.446 7.852 82.121 5.035 121.692-6.156a261 261 0 0 1-10.418-2.55Zm0 0"/></g></g></g><g mask="url(#E)"><g clip-path="url(#F)" transform="translate(1096 424)"><g clip-path="url(#G)"><path fill="#065f46" d="M21.441 2.336A243 243 0 0 1 10.36.48a177 177 0 0 1-9.347 6.633c.355-.035.71-.058 1.066-.09a174 174 0 0 0 19.363-4.687m0 0"/></g></g></g><g clip-path="url(#H)" mask="url(#I)"><g clip-path="url(#J)" transform="translate(854)"><g clip-path="url(#K)"><path fill="#065f46" d="M348.79 45.21a186 186 0 0 0-2.782-1.765C293.918 10.703 230.57-5.34 169.695 3.602 105.31 13.05 47.375 49.387 1.082 95.258c4.348 10.07 8.582 20.16 12.68 30.324q.135.06.27.113c10.55 5.57 16.269 15.89 20.355 26.477 3.324 8.605 6.945 17.121 9.535 25.976 2.527 8.641 5.09 17.274 7.7 25.887 2.487 8.227 4.933 16.461 7.347 24.707a609 609 0 0 1 30.8-24.863c32.434-24.465 69.79-46.43 110.415-46.113 46.671.367 90.265 32.468 108.953 75.238 13.332 30.535 14.648 65.328 6.277 97.703 9.668.52 19.348.535 28.996-.32a122.4 122.4 0 0 0 16.371-4.223c7.004-18.766 11.871-38.379 14.965-58.156a469 469 0 0 0 3.055-49.531c.082-9.52-.516-18.98-.785-28.48-.137-4.845-.368-9.677-.582-14.513-.215-4.793.664-9.64 1.082-14.418.964-11.097 4.007-22.546 12.605-30.437a51.2 51.2 0 0 1 18.996-11.07c3.89-1.258 8.02-1.7 12.149-1.512-18.067-27.242-41.95-52.52-73.48-72.836Zm0 0"/></g></g></g><g clip-path="url(#L)" mask="url(#M)"><g clip-path="url(#N)" transform="translate(254)"><g clip-path="url(#O)"><path fill="#065f46" d="M730.395 590.328a457 457 0 0 1-36.778-33.11c-14.597-14.64-27.312-31.07-39.64-47.624-9.961-13.367-19.098-27.227-27.102-41.852-10.93-19.965-19.93-40.824-28.598-61.851a689 689 0 0 1-26.304-76.075 891 891 0 0 1-3.22-4.402q-.055-.075-.112-.152c.047-.051.078-.11.125-.16.46-.614.937-1.22 1.398-1.829a680 680 0 0 1-7.422-30.066 304 304 0 0 1-.965-4.469c-8.086-18.949-15.297-38.273-21.504-57.953a465 465 0 0 1-12.043-46.336c-11.09 16.035-21.738 32.41-32.207 48.89q.059.085.11.169l-.098.137-.105-.165-11.614-18.398c-.902-1.387-1.804-2.777-2.718-4.16-25.828-39.508-53.407-77.793-86.395-111.406C348.22 51.645 288.711 13.34 222.343 3.602 161.47-5.34 98.122 10.703 46.032 43.445A247.921 247.921 0 0 0 .715 79.785c10.55-3.277 21.324-5.773 32.195-7.355 17.254-2.504 34.336-4.594 51.781-4.035 17.7.566 35.497 2.957 52.848 6.382 30.602 6.047 60.324 17.856 87.965 32.11 25.629 13.215 49.18 30.07 71.164 48.664 17.484 14.785 33.414 31.387 47.594 49.36 17.015 21.57 32.71 43.726 45.39 68.144a463 463 0 0 1 12.051 25.015 612 612 0 0 1 21.695 27.192c.051-.07.102-.137.145-.203 0 .14.012.28.012.421-.043-.074-.106-.14-.157-.214a998 998 0 0 1-7.175 9.765 402 402 0 0 1 4.535 14.156 354 354 0 0 1 8.347 33.793 353 353 0 0 1 2.817 16.563c1.484 10.223 3.273 20.562 3.676 30.914.445 11.488.02 22.746-1.305 34.164-.832 7.168-1.215 14.547-3.305 21.461a330 330 0 0 1-2.468 7.832c-1.801 5.453-3.825 10.82-5.954 16.152-1.199 5.067-3.386 9.559-6.539 13.48 11.157-10.136 21.442-21.077 30.594-32.784 14.598-18.672 31.703-40.285 49.387-61.387 17.676 21.105 34.785 42.715 49.383 61.387 44.875 57.426 116.707 96.715 188.25 110.605 4.601.895 9.222 1.633 13.851 2.254-5.828-4.238-11.472-8.738-17.113-13.289Zm0 0"/></g></g></g><g mask="url(#P)"><g clip-path="url(#Q)" transform="translate(243 285)"><g clip-path="url(#R)"><path fill="#065f46" d="M390.633 257.762c-9.762.437-19.477-3.758-26.988-9.563-4.848-3.137-8.676-7.304-11.47-12.496-1.495-3.547-2.991-7.098-4.495-10.64a348 348 0 0 0-4.102-21.184c-2.61-11.559-3.375-23.348-4.945-35.066q.407 3.012.812 6.03c-.656-4.972-1.293-9.948-1.937-14.921-.258-1.883-.52-3.762-.778-5.64a47 47 0 0 1-2.37-.993c-33.81 19.645-75.93 25.04-114.762 17.477-49.551-9.649-93.493-43.254-117.387-87.72C88.742 57.98 81.688 29.18 82.449.825a184.3 184.3 0 0 0-21.953 22.153 215.3 215.3 0 0 0-20.469 35.16c-7.011 18.156-12.035 37.23-15.086 56.457-1.062 9.289-1.843 18.664-2.187 27.98-.422 11.52-.844 23.145-.715 34.672.133 11.852-5.023 22.516-12.867 31.059-2.54 2.765-5.555 5.023-8.828 6.828 17.68 21.297 38.207 40.125 61.332 55.426 60.785 40.222 136.18 59.703 207.726 45.808 49.446-9.601 99.024-31.34 139.75-62.805a53 53 0 0 1-18.504 4.208Zm0 0"/></g></g></g><g mask="url(#S)"><g clip-path="url(#T)" transform="translate(1096 424)"><g clip-path="url(#U)"><path fill="#065f46" d="M21.441 2.336A243 243 0 0 1 10.36.48a177 177 0 0 1-9.347 6.633c.355-.035.71-.058 1.066-.09a174 174 0 0 0 19.363-4.687m0 0"/></g></g></g><g clip-path="url(#V)" mask="url(#W)"><g clip-path="url(#X)" transform="translate(854)"><g clip-path="url(#Y)"><path fill="#065f46" d="M348.79 45.21a186 186 0 0 0-2.782-1.765C293.918 10.703 230.57-5.34 169.695 3.602 105.31 13.05 47.375 49.387 1.082 95.258c4.348 10.07 8.582 20.16 12.68 30.324q.135.06.27.113c10.55 5.57 16.269 15.89 20.355 26.477 3.324 8.605 6.945 17.121 9.535 25.976 2.527 8.641 5.09 17.274 7.7 25.887 2.487 8.227 4.933 16.461 7.347 24.707a609 609 0 0 1 30.8-24.863c32.434-24.465 69.79-46.43 110.415-46.113 46.671.367 90.265 32.468 108.953 75.238 13.332 30.535 14.648 65.328 6.277 97.703 9.668.52 19.348.535 28.996-.32a122.4 122.4 0 0 0 16.371-4.223c7.004-18.766 11.871-38.379 14.965-58.156a469 469 0 0 0 3.055-49.531c.082-9.52-.516-18.98-.785-28.48-.137-4.845-.368-9.677-.582-14.513-.215-4.793.664-9.64 1.082-14.418.964-11.097 4.007-22.546 12.605-30.437a51.2 51.2 0 0 1 18.996-11.07c3.89-1.258 8.02-1.7 12.149-1.512-18.067-27.242-41.95-52.52-73.48-72.836Zm0 0"/></g></g></g><g clip-path="url(#Z)" mask="url(#aa)"><g clip-path="url(#ab)" transform="translate(291)"><g clip-path="url(#ac)"><path fill="#065f46" d="M27.145 43.375c15.722-2.219 31.476-3.898 47.293-5.25 11.906-1.016 23.882.035 35.714 1.535 16.051 2.035 31.946 4.297 47.582 8.504 26.79 7.203 52.774 18.844 76.067 33.926 13.195 8.547 25.66 18.504 37.531 28.805 8.484 7.363 16.54 15.218 24.16 23.464 18.297 19.797 34.746 41.625 49.274 64.32 27.476 42.91 48.277 90.098 67.355 137.2 13.77 33.988 25.895 68.617 39.176 102.793a1876 1876 0 0 1 7.734-9.309c17.672 21.106 34.781 42.715 49.38 61.387 41.202 52.723 105.136 90.145 170.702 106.672-15.36-10.367-29.843-22.016-43.933-34.094-70.625-60.558-117.215-143.226-156.715-226.105-37.793-79.305-71.543-161.625-124.543-232.328-12.871-16.133-26.715-31.493-41.676-45.692-37.683-28.129-80.621-48.816-126.898-55.605-60.875-8.942-124.22 7.101-176.313 39.84-.937.59-1.855 1.175-2.781 1.769a221 221 0 0 0-5.043 3.34c8.496-2.348 17.172-3.942 25.941-5.176Zm0 0"/></g></g></g><g mask="url(#ad)"><g clip-path="url(#ae)" transform="translate(243 285)"><g clip-path="url(#af)"><path fill="#065f46" d="M390.633 257.762c-9.762.437-19.477-3.758-26.988-9.563-4.848-3.137-8.676-7.304-11.47-12.496-1.495-3.547-2.991-7.098-4.495-10.64a348 348 0 0 0-4.102-21.184c-2.61-11.559-3.375-23.348-4.945-35.066q.407 3.012.812 6.03c-.656-4.972-1.293-9.948-1.937-14.921-.258-1.883-.52-3.762-.778-5.64a47 47 0 0 1-2.37-.993c-33.81 19.645-75.93 25.04-114.762 17.477-49.551-9.649-93.493-43.254-117.387-87.72C88.742 57.98 81.688 29.18 82.449.825a184.3 184.3 0 0 0-21.953 22.153 215.3 215.3 0 0 0-20.469 35.16c-7.011 18.156-12.035 37.23-15.086 56.457-1.062 9.289-1.843 18.664-2.187 27.98-.422 11.52-.844 23.145-.715 34.672.133 11.852-5.023 22.516-12.867 31.059-2.54 2.765-5.555 5.023-8.828 6.828 17.68 21.297 38.207 40.125 61.332 55.426 60.785 40.222 136.18 59.703 207.726 45.808 49.446-9.601 99.024-31.34 139.75-62.805a53 53 0 0 1-18.504 4.208Zm0 0"/></g></g></g><g mask="url(#ag)"><g clip-path="url(#ah)" transform="translate(1096 424)"><g clip-path="url(#ai)"><path fill="#065f46" d="M21.441 2.336A243 243 0 0 1 10.36.48a177 177 0 0 1-9.347 6.633c.355-.035.71-.058 1.066-.09a174 174 0 0 0 19.363-4.687m0 0"/></g></g></g><g clip-path="url(#aj)" mask="url(#ak)"><g clip-path="url(#al)" transform="translate(854)"><g clip-path="url(#am)"><path fill="#065f46" d="M348.79 45.21a186 186 0 0 0-2.782-1.765C293.918 10.703 230.57-5.34 169.695 3.602 105.31 13.05 47.375 49.387 1.082 95.258c4.348 10.07 8.582 20.16 12.68 30.324q.135.06.27.113c10.55 5.57 16.269 15.89 20.355 26.477 3.324 8.605 6.945 17.121 9.535 25.976 2.527 8.641 5.09 17.274 7.7 25.887 2.487 8.227 4.933 16.461 7.347 24.707a609 609 0 0 1 30.8-24.863c32.434-24.465 69.79-46.43 110.415-46.113 46.671.367 90.265 32.468 108.953 75.238 13.332 30.535 14.648 65.328 6.277 97.703 9.668.52 19.348.535 28.996-.32a122.4 122.4 0 0 0 16.371-4.223c7.004-18.766 11.871-38.379 14.965-58.156a469 469 0 0 0 3.055-49.531c.082-9.52-.516-18.98-.785-28.48-.137-4.845-.368-9.677-.582-14.513-.215-4.793.664-9.64 1.082-14.418.964-11.097 4.007-22.546 12.605-30.437a51.2 51.2 0 0 1 18.996-11.07c3.89-1.258 8.02-1.7 12.149-1.512-18.067-27.242-41.95-52.52-73.48-72.836Zm0 0"/></g></g></g><g mask="url(#an)"><g clip-path="url(#ao)" transform="translate(457 13)"><g clip-path="url(#ap)"><path fill="#065f46" d="M324.832 386.285c-14.5-26.527-27.23-53.957-39.742-81.465-14.203-31.222-29.594-62.375-39.246-95.367-14.446-28.96-30.348-57.254-49.188-83.61-9.191-10.921-18.136-22.066-27.886-32.511-9.262-9.926-19.266-18.988-29.82-27.477-24.325-18.187-50.028-34.18-77.755-46.64C41.585 11.398 21.371 5.172.754.707 9.402 2.98 17.902 5.73 26.168 9.023 42.93 15.695 59.316 23 74.758 32.336c15.836 9.574 30.676 20.898 44.894 32.695 24.91 20.676 45.516 46.028 64.485 72.117 35.449 48.774 59.761 104.606 85.511 158.805 13.989 29.43 28.106 58.762 43.157 87.676 13.48 25.89 28.336 51.164 45.742 74.629 15.633 19.449 33.105 37.398 52.473 53.144a282 282 0 0 0 22.64 14.98c-44.344-39.741-80.308-87.925-108.828-140.097m0 0"/></g></g></g><g mask="url(#aq)"><g clip-path="url(#ar)" transform="translate(243 285)"><g clip-path="url(#as)"><path fill="#065f46" d="M390.633 257.762c-9.762.437-19.477-3.758-26.988-9.563-4.848-3.137-8.676-7.304-11.47-12.496-1.495-3.547-2.991-7.098-4.495-10.64a348 348 0 0 0-4.102-21.184c-2.61-11.559-3.375-23.348-4.945-35.066q.407 3.012.812 6.03c-.656-4.972-1.293-9.948-1.937-14.921-.258-1.883-.52-3.762-.778-5.64a47 47 0 0 1-2.37-.993c-33.81 19.645-75.93 25.04-114.762 17.477-49.551-9.649-93.493-43.254-117.387-87.72C88.742 57.98 81.688 29.18 82.449.825a184.3 184.3 0 0 0-21.953 22.153 215.3 215.3 0 0 0-20.469 35.16c-7.011 18.156-12.035 37.23-15.086 56.457-1.062 9.289-1.843 18.664-2.187 27.98-.422 11.52-.844 23.145-.715 34.672.133 11.852-5.023 22.516-12.867 31.059-2.54 2.765-5.555 5.023-8.828 6.828 17.68 21.297 38.207 40.125 61.332 55.426 60.785 40.222 136.18 59.703 207.726 45.808 49.446-9.601 99.024-31.34 139.75-62.805a53 53 0 0 1-18.504 4.208Zm0 0"/></g></g></g><g mask="url(#at)"><g clip-path="url(#au)" transform="translate(742 316)"><g clip-path="url(#av)"><path fill="#030303" d="M1.91 96.637c-.926 1.328-1.031 3.093-.652 4.668.37 1.574 1.18 3.007 1.969 4.422l4.336 7.687s30.5 36.805 30.492 35.863c-1.485-19.504 4.832-38.804 13.086-56.535 8.254-17.734 18.515-34.535 25.71-52.722 1.376-3.465 2.829-7.227 5.993-9.204 2.656-1.66 6.09-1.687 9.074-.734 2.988.957 5.594 2.797 7.953 4.902l-.223-.394S75.063 2.09 73.91 2.977C71.613.879 68.086.602 65.117 1.53c-2.969.926-5.496 2.875-7.902 4.852C34.098 25.352 16.05 50.445 5.422 78.395c-2.117 5.57-3.973 11.585-3.516 18.242Zm0 0"/></g></g></g><g mask="url(#aw)"><g clip-path="url(#ax)" transform="translate(742 316)"><g clip-path="url(#ay)"><path fill="#030303" d="M54.86 47.297c6.757-13.527 17.355-25.754 32.835-28.242-6.433-8.22-13.183-16.54-13.773-16.082C71.625.87 68.098.593 65.129 1.527c-2.969.926-5.5 2.871-7.902 4.848C34.109 25.348 16.063 50.438 5.434 78.387c-2.118 5.57-3.973 11.59-3.516 18.246-.926 1.324-1.035 3.094-.656 4.668.375 1.574 1.18 3.008 1.968 4.418q2.169 3.843 4.336 7.691s7.938 9.578 15.711 18.836c4.727-30.055 18.082-57.93 31.582-84.95m0 0"/></g></g></g><path fill="#afbf10" d="M1314.941 245.43c-.488 57.972-14.238 116.425-44.117 166.105-29.879 49.684-76.476 90.067-131.629 107.95-55.144 17.886-118.578 11.847-166.914-20.165-25.68-17.007-46.441-40.46-64.906-65.113a350 350 0 0 1-7.437-10.293 206 206 0 0 1-2.31-3.387c-.66-.98-1.316-1.968-1.96-2.96.418.43.8.812 1.168 1.167 36.144 35.235 91.066 46.684 140.617 37.024 49.55-9.645 93.488-43.25 117.383-87.715 22.09-41.117 26.984-92.262 8.305-135.027-.282-.641-.57-1.286-.86-1.926a5 5 0 0 0-.12-.258c-.24-.523-.481-1.039-.735-1.559-.063-.144-.137-.289-.211-.433-.23-.48-.461-.961-.7-1.434-.117-.238-.238-.469-.355-.699a107 107 0 0 0-1.848-3.5 77 77 0 0 0-1.03-1.852c-.024-.039-.048-.085-.075-.125a77 77 0 0 0-.941-1.632c-.051-.094-.114-.184-.164-.278-.352-.59-.7-1.172-1.063-1.754-.012-.015-.016-.027-.027-.039-.356-.574-.711-1.152-1.082-1.722-.114-.18-.227-.36-.348-.532-.246-.386-.5-.777-.762-1.156a13 13 0 0 0-.293-.449c-.257-.387-.52-.77-.777-1.148-.18-.27-.367-.536-.547-.801-.402-.582-.808-1.153-1.219-1.723q-.52-.72-1.046-1.434c-.075-.093-.141-.19-.208-.289-.367-.484-.734-.976-1.109-1.453a2 2 0 0 0-.168-.215 62 62 0 0 0-1.265-1.617q-.652-.821-1.32-1.636a.3.3 0 0 1-.055-.067c-.442-.531-.876-1.055-1.329-1.582q-.538-.634-1.09-1.262c-.257-.293-.519-.593-.777-.882-.445-.5-.898-1.004-1.347-1.496-.426-.45-.848-.907-1.274-1.36q-.673-.722-1.375-1.433a83 83 0 0 0-1.848-1.856 72 72 0 0 0-1.101-1.082c-1.02-.98-2.047-1.945-3.098-2.894-.34-.305-.676-.614-1.015-.907-.2-.176-.395-.36-.598-.527-.274-.242-.543-.48-.82-.711a130 130 0 0 0-6.645-5.352c-.32-.25-.64-.492-.969-.722-.265-.203-.535-.399-.8-.594a123 123 0 0 0-5.184-3.566c-.29-.2-.586-.383-.875-.575a124 124 0 0 0-5.898-3.558 45 45 0 0 0-1.114-.625 124 124 0 0 0-7.89-4.008c-.465-.211-.93-.426-1.395-.633-.055-.027-.117-.05-.18-.078-.433-.191-.863-.379-1.304-.57-.18-.078-.364-.153-.535-.227-.446-.2-.895-.379-1.344-.562a57 57 0 0 0-1.606-.645 55 55 0 0 0-1.613-.621c-.36-.137-.715-.273-1.078-.402-.125-.043-.254-.094-.379-.133a31 31 0 0 0-1-.36c-.363-.128-.73-.257-1.098-.375-.449-.152-.894-.304-1.343-.453a119 119 0 0 0-4.965-1.5c-8.996-2.496-18.305-3.863-27.73-3.937-40.633-.317-77.981 21.648-110.423 46.113-45.734 34.492-86.582 75.445-121.007 121.219-.04.05-.078.11-.125.16.027.04.047.066.074.102-1.074 1.257-68.852 98.828-72.559 104.164-.043-.051-.093-.106-.133-.157-17.68 21.106-34.789 42.715-49.386 61.387-44.875 57.426-116.707 96.715-188.25 110.606-71.543 13.894-146.942-5.594-207.727-45.809-22.055-14.598-41.762-32.39-58.875-52.48a267 267 0 0 1-2.543-3.024 272 272 0 0 1-1.945-2.371l-1.48-1.84c-.25-.305-.497-.617-.727-.922a155 155 0 0 1-1.797-2.285 303 303 0 0 1-4.621-6.086 147 147 0 0 1-1.809-2.469c-.078-.105-.152-.203-.226-.308-.54-.75-1.09-1.508-1.617-2.266a88 88 0 0 1-.977-1.383c-.602-.851-1.191-1.699-1.77-2.554a320 320 0 0 1-6.316-9.551c-.422-.668-.848-1.332-1.254-2-.11-.168-.21-.332-.312-.5-.489-.773-.961-1.543-1.438-2.32-.383-.63-.766-1.266-1.144-1.891-.461-.773-.926-1.543-1.38-2.316-.769-1.305-1.523-2.61-2.273-3.922-.297-.528-.605-1.051-.902-1.582-.102-.18-.203-.36-.293-.532a243 243 0 0 1-1.711-3.082c-.023-.039-.04-.074-.062-.113-3.5-19.289-5.54-38.808-5.704-58.418-.363-44.695 9.36-89.996 31.942-128.566 27.672-47.278 74.613-82.887 127.597-96.79 20.887-5.48 42.602-7.562 64.16-6.378a90 90 0 0 0-1.835.367q-1.061.212-2.106.453c-.496.113-.992.223-1.492.348-1.957.469-3.906 1-5.84 1.582-.437.125-.863.258-1.3.394-.954.293-1.903.606-2.844.93-.332.113-.672.227-1.012.352-.602.207-1.207.43-1.805.648-.418.152-.836.313-1.246.469-.11.039-.21.078-.312.125-.524.203-1.04.402-1.559.613-.723.29-1.437.59-2.156.895-.5.207-1 .43-1.496.648-.496.215-.993.441-1.485.664-.078.043-.156.074-.23.11q-.853.396-1.695.8c-.016 0-.028.012-.04.016-.484.234-.964.465-1.437.707a9 9 0 0 0-.516.254c-.46.226-.918.465-1.375.699-.554.29-1.113.582-1.668.875-1.23.66-2.449 1.352-3.656 2.05-.422.243-.84.493-1.258.74-.52.312-1.035.62-1.547.944-.046.032-.101.059-.148.094-.508.313-1.016.625-1.52.95-.535.347-1.078.695-1.605 1.05-.441.285-.875.578-1.312.867q-2.518 1.71-4.954 3.54c-.304.226-.617.456-.918.695-.28.207-.558.43-.832.644-.265.203-.53.406-.785.614-.273.203-.539.425-.8.64-.258.195-.504.395-.754.61-.457.367-.918.742-1.372 1.128-.023.016-.039.032-.062.051-.469.387-.938.785-1.399 1.192a103 103 0 0 0-3.167 2.82c-.457.426-.918.848-1.368 1.277-.007 0-.015.012-.02.02-.405.379-.812.773-1.214 1.172q-.154.135-.29.28c-.405.395-.804.798-1.202 1.196-.446.442-.871.883-1.309 1.332-.5.52-1 1.035-1.484 1.567q-1.226 1.296-2.41 2.632c-.243.278-.493.555-.735.836-.277.313-.539.622-.812.946-.38.445-.754.886-1.121 1.336q-.427.499-.825 1.004a126 126 0 0 0-5.996 7.945c-.226.32-.453.64-.668.965-.347.5-.687 1.008-1.02 1.515-.222.336-.44.668-.655 1.008q-.269.41-.532.824a69 69 0 0 0-1.004 1.602c-.253.406-.5.812-.746 1.227a123 123 0 0 0-2.754 4.82c-.218.398-.44.805-.648 1.21a8 8 0 0 0-.254.49c-.262.487-.515.98-.77 1.476-.066.14-.14.289-.21.437-.211.422-.426.852-.63 1.281q-.184.381-.37.762c-.582 1.211-1.141 2.438-1.684 3.672-18.68 42.77-13.785 93.918 8.305 135.027q.557 1.045 1.133 2.078.532.967 1.09 1.926c.058.106.12.203.18.309.355.62.718 1.25 1.089 1.863.367.617.742 1.238 1.11 1.848l1.046 1.691c.211.328.406.649.617.973.227.367.457.722.696 1.082.203.316.398.629.61.941 24.964 38.094 65.105 66.301 109.815 75 49.551 9.653 104.47-1.789 140.614-37.023 12.422-12.117 53.543-64.992 74.195-93.477.05.074.113.14.16.215 0-.14 0-.281-.011-.422a7 7 0 0 1-.149.203c-.074-.097-.144-.199-.219-.289l72.848-91.629-.098.145.11.16.093-.133c-.035-.058-.066-.113-.105-.172 30.059-47.343 61.617-93.87 100.816-133.82 46.977-47.871 106.485-86.176 172.852-95.914 60.875-8.941 124.223 7.102 176.312 39.84a248.223 248.223 0 0 1 11.121 7.387 200 200 0 0 1 5 3.605c.825.61 1.645 1.219 2.454 1.836a252.932 252.932 0 0 1 7.14 5.625q1.166.949 2.313 1.922a268.51 268.51 0 0 1 4.527 3.883 224 224 0 0 1 4.387 3.968c.723.664 1.437 1.336 2.152 2.008a260 260 0 0 1 4.192 4.07 171 171 0 0 1 2.054 2.063 189 189 0 0 1 1.95 2.008c.039.035.066.07.105.11.648.683 1.3 1.359 1.941 2.046.66.7 1.313 1.406 1.961 2.106.024.027.04.046.067.074 1.27 1.383 2.52 2.781 3.75 4.183a246 246 0 0 1 3.695 4.325c.57.675 1.137 1.359 1.7 2.043q.991 1.214 1.976 2.445.832 1.035 1.648 2.082.872 1.109 1.715 2.219c.488.632.965 1.265 1.441 1.902a215 215 0 0 1 3.59 4.898c.52.723 1.028 1.446 1.535 2.176l.012.008c.531.758 1.051 1.516 1.57 2.266a291 291 0 0 1 3.063 4.57q.66 1.003 1.305 2.012c.293.457.593.918.883 1.382q.52.813 1.02 1.626a287 287 0 0 1 3.675 6.05c.254.43.508.864.754 1.29.125.206.246.421.367.632q.466.79.922 1.598a273 273 0 0 1 4.98 9.113q.426.81.84 1.617c.188.356.371.703.547 1.067.492.953.973 1.918 1.45 2.879a279 279 0 0 1 1.507 3.07c.188.383.367.773.555 1.156.277.578.547 1.153.816 1.735.375.789.746 1.59 1.11 2.386.734 1.594 1.449 3.184 2.148 4.79.332.753.668 1.515.988 2.265a232 232 0 0 1 1.508 3.57c.461 1.106.914 2.207 1.355 3.313.266.656.532 1.304.778 1.957q.486 1.213.95 2.43c.198.496.382.992.57 1.496.253.648.495 1.304.738 1.957a246 246 0 0 1 1.695 4.64c.281.781.55 1.559.824 2.336.551 1.586 1.094 3.176 1.621 4.762.121.375.254.762.375 1.137.137.425.278.847.414 1.273a389 389 0 0 1 3.157 52.625Zm0 0"/><g mask="url(#az)"><g clip-path="url(#aA)" transform="translate(291 158)"><g clip-path="url(#aB)"><path fill="#065f46" d="M1.54 66.277c-1.614 27.493.85 53.54 8.444 79.758 1.809 6.25 3.871 12.442 6.243 18.5.285.727.578 1.45.87 2.172.063.145.43 1.027.598 1.43.266.586 1.028 2.316 1.22 2.734a201.333 201.333 0 0 0 22.46 37.855c.047.063.082.11.121.153.04.05.078.101.133.172a205 205 0 0 0 2.574 3.203 207 207 0 0 0 4.957 5.805 223 223 0 0 0 11.77 12.254 184 184 0 0 0 12.672 11.199c.59.476 1.175.937 1.77 1.406.07.059.167.125.304.227 1.09.808 2.172 1.62 3.273 2.41.633.453 1.274.898 1.914 1.343a175 175 0 0 1-19.093-24.144 44 44 0 0 1-.61-.941c-.234-.364-.469-.72-.7-1.086q-.309-.478-.612-.97c-.356-.566-.703-1.128-1.051-1.695l-1.106-1.843a129 129 0 0 1-1.09-1.864c-.062-.109-.124-.203-.183-.312-.363-.637-.73-1.281-1.086-1.922-.387-.691-.766-1.379-1.137-2.078-22.09-41.117-26.98-92.262-8.304-135.027q.81-1.854 1.683-3.672c.125-.258.242-.512.367-.766.204-.433.418-.863.625-1.281.075-.145.149-.285.215-.434.254-.496.508-.988.77-1.476q.118-.247.254-.489c.207-.406.43-.812.648-1.21a113 113 0 0 1 2.754-4.825q.364-.614.746-1.222c.328-.536.66-1.078 1.004-1.606l.531-.824q.323-.505.657-1.004c.335-.512.675-1.02 1.02-1.516.214-.324.44-.644.667-.968a127 127 0 0 1 5.992-7.942c.266-.34.543-.672.824-1.004.368-.453.747-.89 1.125-1.34.27-.312.536-.624.813-.94.242-.282.492-.56.734-.837.785-.89 1.59-1.765 2.41-2.637.485-.527.98-1.043 1.485-1.562.433-.453.863-.89 1.308-1.332q.593-.603 1.204-1.195.144-.146.289-.286c.398-.394.804-.78 1.214-1.168 0-.011.008-.015.02-.02.453-.437.91-.858 1.367-1.276q1.558-1.442 3.168-2.825c.461-.406.93-.8 1.399-1.191.023-.02.039-.04.062-.05.453-.384.914-.763 1.371-1.13.25-.207.496-.41.75-.61.266-.214.531-.433.805-.636.258-.207.523-.418.781-.613.277-.215.555-.438.836-.645.3-.23.61-.464.914-.695a127 127 0 0 1 4.957-3.539c.434-.29.871-.586 1.309-.871.531-.356 1.074-.7 1.61-1.047a70 70 0 0 1 1.519-.95c.047-.034.101-.062.148-.097.512-.316 1.027-.625 1.547-.941q.62-.375 1.258-.739a120 120 0 0 1 3.656-2.05c.547-.293 1.106-.594 1.668-.875q.684-.359 1.375-.7.252-.136.516-.253c.472-.243.953-.473 1.437-.707.012 0 .024-.012.04-.016.558-.277 1.124-.535 1.695-.8q.112-.053.23-.11.739-.342 1.484-.664.743-.336 1.496-.649c.711-.304 1.434-.605 2.157-.894.52-.207 1.035-.41 1.558-.614.102-.039.207-.085.309-.125q.622-.24 1.25-.468c.598-.22 1.203-.442 1.805-.649.34-.125.68-.238 1.011-.351.942-.328 1.89-.633 2.844-.93.434-.137.863-.273 1.3-.395 1.93-.582 3.884-1.109 5.84-1.582.497-.125.997-.238 1.493-.351.7-.156 1.398-.309 2.105-.45.61-.124 1.22-.25 1.832-.367-21.55-1.187-43.265.899-64.16 6.38-24.305 6.378-47.32 17.347-67.804 31.894-1.235 8.793-2.145 17.598-2.66 26.398Zm0 0"/></g></g></g><g clip-path="url(#aC)" mask="url(#aD)"><g clip-path="url(#aE)" transform="translate(203)"><g clip-path="url(#aF)"><path fill="#065f46" d="M1108.79 192.8q-.208-.63-.415-1.269l-.379-1.14a379 379 0 0 0-1.617-4.758c-.274-.778-.543-1.559-.824-2.336a277 277 0 0 0-1.696-4.64c-.242-.657-.484-1.31-.738-1.958q-.279-.754-.57-1.496c-.313-.808-.63-1.621-.95-2.43-.253-.652-.519-1.304-.777-1.957-.449-1.105-.894-2.207-1.355-3.312a278 278 0 0 0-2.496-5.84q-1.05-2.399-2.153-4.785c-.36-.797-.73-1.598-1.105-2.387q-.403-.873-.817-1.734c-.187-.383-.367-.774-.554-1.156q-.745-1.542-1.508-3.07c-.48-.962-.957-1.927-1.45-2.88-.179-.363-.366-.714-.546-1.07-.277-.535-.555-1.078-.844-1.613a277 277 0 0 0-4.976-9.117c-.301-.536-.61-1.059-.922-1.598l-.368-.629c-.246-.43-.5-.86-.753-1.29a284 284 0 0 0-3.676-6.05c-.34-.543-.676-1.086-1.028-1.625-.289-.465-.585-.926-.878-1.383-.43-.672-.868-1.343-1.305-2.011a239 239 0 0 0-3.067-4.57c-.52-.758-1.039-1.516-1.57-2.266 0 0 0-.012-.012-.012q-.762-1.083-1.535-2.172a219 219 0 0 0-3.59-4.898q-.71-.96-1.437-1.903-.848-1.112-1.719-2.218c-.539-.704-1.094-1.391-1.648-2.086a244 244 0 0 0-1.973-2.442c-.566-.683-1.129-1.367-1.7-2.043-.609-.722-1.214-1.445-1.835-2.168-.621-.718-1.234-1.433-1.863-2.156-1.23-1.402-2.485-2.8-3.746-4.184-.032-.027-.047-.046-.07-.074-.65-.699-1.298-1.406-1.958-2.105-.644-.688-1.293-1.367-1.941-2.051-.04-.04-.07-.07-.11-.106a204.64 204.64 0 0 0-4-4.07 218 218 0 0 0-6.347-6.078 236 236 0 0 0-4.383-3.969 218 218 0 0 0-2.254-1.953c-.75-.648-1.512-1.293-2.273-1.93a240.48 240.48 0 0 0-9.457-7.547 200 200 0 0 0-2.45-1.835c-.757-.559-1.52-1.114-2.28-1.672a241 241 0 0 0-2.72-1.938q-4.082-2.864-8.34-5.613a159 159 0 0 0-2.78-1.77C944.936 10.7 881.593-5.343 820.718 3.597c-66.367 9.739-125.875 48.044-172.856 95.91-39.203 39.95-70.758 86.481-100.816 133.825.039.059.074.113.11.172l-.098.133-.106-.164.094-.141-72.848 91.629c.074.094.149.2.223.289.05-.07.101-.137.144-.203 0 .14.012.281.012.422-.047-.074-.105-.14-.156-.215-9.035 12.453-21.973 29.566-34.719 45.898.496.266 1 .52 1.496.809 6.09 3.601 10.942 8.45 14.547 14.547q5.503 9.48 5.54 20.46c-.7 5.512-1.013 11.427-2.419 16.844-1.437 5.54-4.558 11.13-7.191 16.31-2.223 4.386-4.836 8.327-7.801 12.25-5.332 7.058-10.695 14.128-16.543 20.773-3.43 3.894-6.945 7.39-11.008 10.617-6.949 5.531-13.969 11.37-21.484 16.18-8.656 5.53-17.875 10.234-27.293 14.316-13.164 5.699-26.336 10.746-40.29 14.117-23.816 5.75-48.788 8.512-73.253 6.453-14.129-1.191-28.172-3.195-41.84-7-13.363-3.715-26.101-9.004-38.809-14.527-9.21-4-18.492-8.274-27.28-13.14-11.958-6.626-22.825-15.122-33.579-23.49-15.867-12.339-30.914-26.6-43.871-41.972-27.773-32.957-48.777-71.512-59.973-113.113C2.895 344.3.312 367.902.504 391.332c.164 19.613 2.2 39.133 5.7 58.422l.062.113c.566 1.028 1.129 2.059 1.71 3.082.098.172.2.356.294.528.3.53.605 1.058.902 1.582a321 321 0 0 0 2.277 3.921c.45.774.914 1.543 1.375 2.317.38.625.762 1.265 1.149 1.89.468.778.941 1.547 1.433 2.32q.152.252.317.5c.406.669.828 1.337 1.254 2a295 295 0 0 0 6.316 9.552c.578.859 1.172 1.707 1.766 2.558.32.461.648.926.976 1.383.531.762 1.078 1.512 1.621 2.262.07.11.145.21.223.312.594.824 1.191 1.649 1.808 2.465q.38.526.766 1.035c1.274 1.7 2.555 3.387 3.856 5.051a127.025 127.025 0 0 0 1.797 2.285c.23.305.48.617.726.922l1.48 1.84c.645.789 1.293 1.586 1.95 2.371.84 1.016 1.68 2.02 2.539 3.027 17.113 20.09 36.82 37.883 58.875 52.48 60.785 40.22 136.18 59.7 207.726 45.805 71.551-13.894 143.383-53.18 188.254-110.605 14.598-18.672 31.7-40.285 49.387-61.387.039.051.09.106.129.157 3.707-5.332 71.488-102.907 72.558-104.165-.027-.035-.043-.062-.074-.101.047-.05.082-.106.125-.156 34.43-45.778 75.274-86.723 121.012-121.22 19.039-14.355 39.766-27.847 61.86-36.483q-11.082-.843-20.844-6.508c-3.293-2.547-6.582-5.086-9.88-7.633-9.581-8.793-13.73-21.887-14.292-34.508-.543-12.152 5.832-26.043 14.293-34.508 9.398-9.398 21.515-13.484 34.508-14.293 6.253-.386 12.687-.777 18.937-.234 16.781 1.457 33.723 4.09 50.21 7.648 16.852 3.633 32.442 9.579 48.231 16.5 27.43 12.024 52.79 29.746 74.028 50.809 12.343 12.246 23.258 26.078 33.18 40.316 8.84 12.68 15.535 26.125 21.53 40.34 6.044 14.324 11.231 28.707 14.434 43.957 3.657 17.414 5.95 35.371 6.328 53.172.38 17.965-1.82 35.723-4.558 53.453a218.7 218.7 0 0 1-9.656 38.75 335 335 0 0 1-8.672 22.317 263 263 0 0 0 17.41-25.438c29.879-49.68 43.629-108.133 44.12-166.105a389 389 0 0 0-3.155-52.63Zm0 0"/></g></g></g><g mask="url(#aG)"><g clip-path="url(#aH)" transform="translate(894 347)"><g clip-path="url(#aI)"><path fill="#065f46" d="M2.836 71.727c-.367-.356-.75-.739-1.168-1.168.645.996 1.3 1.98 1.96 2.964a236 236 0 0 0 2.31 3.387 355 355 0 0 0 7.437 10.29c17.46 23.308 36.977 45.538 60.758 62.269 9.73-.23 19.465-.848 29.16-1.914 21.684-3.414 42.852-8.668 63.332-16.618 15.238-6.972 29.793-15.335 43.379-25.152 10.676-8.824 20.527-18.562 29.387-29.195a206.5 206.5 0 0 0 19.156-32.895c5.101-13.445 8.855-27.343 11.277-41.511.035-.375.063-.75.098-1.125a167 167 0 0 1-9.086 19.972c-23.899 44.469-67.84 78.07-117.383 87.715-49.55 9.652-104.473-1.789-140.617-37.023Zm0 0"/></g></g></g><g clip-path="url(#aJ)"><g mask="url(#aK)"><g clip-path="url(#aL)" transform="translate(203)"><g clip-path="url(#aM)"><path fill="#f97316" d="M1108.79 192.8q-.208-.63-.415-1.269l-.379-1.14a379 379 0 0 0-1.617-4.758c-.274-.778-.543-1.559-.824-2.336a277 277 0 0 0-1.696-4.64c-.242-.657-.484-1.31-.738-1.958q-.279-.754-.57-1.496c-.313-.808-.63-1.621-.95-2.43-.253-.652-.519-1.304-.777-1.957-.449-1.105-.894-2.207-1.355-3.312a278 278 0 0 0-2.496-5.84q-1.05-2.399-2.153-4.785c-.36-.797-.73-1.598-1.105-2.387q-.403-.873-.817-1.734c-.187-.383-.367-.774-.554-1.156q-.745-1.542-1.508-3.07c-.48-.962-.957-1.927-1.45-2.88-.179-.363-.366-.714-.546-1.07-.277-.535-.555-1.078-.844-1.613a277 277 0 0 0-4.976-9.117c-.301-.536-.61-1.059-.922-1.598l-.368-.629c-.246-.43-.5-.86-.753-1.29a284 284 0 0 0-3.676-6.05c-.34-.543-.676-1.086-1.024-1.625a214 214 0 0 0-2.183-3.394 207 207 0 0 0-3.067-4.57c-.52-.758-1.035-1.516-1.566-2.266 0 0 0-.012-.012-.012-.508-.723-1.023-1.445-1.535-2.172a231 231 0 0 0-3.59-4.898 143 143 0 0 0-1.441-1.903q-.843-1.112-1.715-2.218c-.543-.704-1.098-1.391-1.648-2.086a213.932 213.932 0 0 0-3.676-4.484c-.61-.723-1.215-1.446-1.836-2.169-.621-.718-1.235-1.433-1.86-2.156a268 268 0 0 0-3.75-4.184c-.027-.027-.046-.046-.066-.074-.652-.699-1.3-1.406-1.96-2.105-.645-.688-1.294-1.367-1.942-2.051-.04-.04-.067-.07-.106-.106a189 189 0 0 0-1.949-2.007c-.684-.696-1.36-1.38-2.055-2.063a208 208 0 0 0-4.195-4.07c-.71-.672-1.426-1.344-2.148-2.008a236 236 0 0 0-4.387-3.969 218 218 0 0 0-2.254-1.953c-.75-.648-1.512-1.293-2.274-1.93-.769-.644-1.535-1.28-2.312-1.921a253 253 0 0 0-9.594-7.461q-1.132-.837-2.281-1.672a210 210 0 0 0-2.719-1.938q-4.082-2.864-8.336-5.613a159 159 0 0 0-2.785-1.77C944.945 10.7 881.598-5.343 820.723 3.597c-66.368 9.739-125.875 48.044-172.852 95.91-39.203 39.95-70.758 86.481-100.816 133.825.039.059.07.113.105.172l-.097.133-.106-.164.098-.141-72.848 91.629c.07.094.145.2.219.289l.148-.203c0 .14.008.281.008.422-.043-.074-.105-.14-.156-.215-20.656 28.484-61.774 81.36-74.196 93.473-16.207 15.8-36.19 26.804-57.77 33.277-12.327 5.945-25.39 11.238-38.616 14.719-14.254 3.742-29.27 5.605-43.942 6.472-10.336.61-20.695.2-30.96-1.101-14.735-1.864-29.235-3.809-43.399-8.371-28.102-9.055-53.164-23.07-75.078-42.88-10.934-9.878-20.063-21.902-28.371-33.991-8.672-12.622-14.727-26.926-20.106-41.192-3.937-10.43-6.543-21.285-8.086-32.316-2.21-15.875-4.035-31.114-2.832-47.114.918-12.187 2.563-24.234 5.075-36.046-8.93 10.058-16.903 20.968-23.704 32.586C9.863 301.348.137 346.645.504 391.34c.164 19.61 2.2 39.129 5.7 58.418l.062.113c.566 1.027 1.129 2.059 1.71 3.082.098.176.2.356.294.535.3.532.605 1.055.902 1.582a354 354 0 0 0 2.277 3.922c.45.774.914 1.543 1.375 2.317.38.625.762 1.261 1.149 1.89.468.778.941 1.547 1.433 2.32.102.168.203.333.317.5.406.668.828 1.333 1.254 2a299 299 0 0 0 6.316 9.555c.578.86 1.172 1.707 1.766 2.559q.482.697.976 1.383c.531.761 1.078 1.511 1.621 2.265.07.106.145.203.223.309a147 147 0 0 0 1.808 2.469q.38.521.766 1.03c1.274 1.7 2.555 3.388 3.856 5.052.07.097.136.187.214.285.52.672 1.047 1.336 1.582 2.004.23.304.48.613.727.918.492.617.984 1.226 1.48 1.84.645.792 1.293 1.585 1.95 2.37.84 1.016 1.68 2.024 2.539 3.028 17.113 20.09 36.82 37.883 58.875 52.48 60.785 40.22 136.18 59.7 207.726 45.809 71.551-13.898 143.38-53.18 188.254-110.605 14.598-18.676 31.7-40.29 49.387-61.391.039.05.09.11.129.16 3.707-5.336 71.488-102.906 72.558-104.168-.027-.031-.043-.058-.074-.101.04-.051.082-.106.125-.157 34.43-45.773 75.274-86.722 121.012-121.218 32.434-24.465 69.785-46.43 110.414-46.114 9.426.074 18.734 1.442 27.73 3.934 1.668.457 3.329.96 4.965 1.504.45.14.895.293 1.344.449q.545.187 1.098.379.503.168 1 .355c.125.04.254.09.379.137.359.129.715.266 1.078.399.535.203 1.078.406 1.613.62q.809.317 1.606.645c.449.188.894.367 1.343.567.168.066.344.14.512.214 2.016.41 4.031.805 6.05 1.2 1.016.16 2.04.324 3.055.5q.574.236 1.141.484a260 260 0 0 1 14.938 6.098 73 73 0 0 1 5.394 2.453c.238.11.477.215.707.328l-.426-.176c1.688.871 3.344 1.828 4.946 2.945 5.183 3.61 10.222 7.668 15.129 11.528 3.078 2.422 6.058 4.957 8.879 7.68 8.921 8.585 16.43 19.085 22.953 29.581 6.496 10.458 11.183 21.95 15.71 33.352 3.075 7.75 5.422 15.8 7.012 23.992 2.239 11.594 3.899 23.477 4.332 35.301.442 11.945-1.336 23.64-3.008 35.45-2.765 19.523-10.207 38.273-19.066 55.773a151.5 151.5 0 0 1-12.285 20.125c-7.04 9.754-14.45 19.441-22.754 28.18-13.668 14.386-29.828 26.952-46.621 37.452-19.16 11.977-40.035 20.954-61.723 27.157 32.469 5.718 66.57 3.308 97.985-6.887 55.144-17.883 101.75-58.266 131.629-107.945 29.878-49.684 43.628-108.137 44.12-166.11a389 389 0 0 0-3.156-52.625Zm0 0"/></g></g></g><g mask="url(#aN)"><g clip-path="url(#aO)" transform="translate(203)"><g clip-path="url(#aP)"><path fill="#f97316" d="M1108.79 192.8q-.208-.63-.415-1.269l-.379-1.14a379 379 0 0 0-1.617-4.758c-.274-.778-.543-1.559-.824-2.336a277 277 0 0 0-1.696-4.64c-.242-.657-.484-1.31-.738-1.958q-.279-.754-.57-1.496c-.313-.808-.63-1.621-.95-2.43-.253-.652-.519-1.304-.777-1.957-.449-1.105-.894-2.207-1.355-3.312a278 278 0 0 0-2.496-5.84q-1.05-2.399-2.153-4.785c-.36-.797-.73-1.598-1.105-2.387q-.403-.873-.817-1.734c-.187-.383-.367-.774-.554-1.156q-.745-1.542-1.508-3.07c-.48-.962-.957-1.927-1.45-2.88-.179-.363-.366-.714-.546-1.07-.277-.535-.555-1.078-.844-1.613a277 277 0 0 0-4.976-9.117c-.301-.536-.61-1.059-.922-1.598l-.368-.629c-.246-.43-.5-.86-.753-1.29a284 284 0 0 0-3.676-6.05c-.34-.543-.676-1.086-1.024-1.625a214 214 0 0 0-2.183-3.394 207 207 0 0 0-3.067-4.57c-.52-.758-1.035-1.516-1.566-2.266 0 0 0-.012-.012-.012-.508-.723-1.023-1.445-1.535-2.172a231 231 0 0 0-3.59-4.898 143 143 0 0 0-1.441-1.903q-.843-1.112-1.715-2.218c-.543-.704-1.098-1.391-1.648-2.086a213.932 213.932 0 0 0-3.676-4.484c-.61-.723-1.215-1.446-1.836-2.169-.621-.718-1.235-1.433-1.86-2.156a268 268 0 0 0-3.75-4.184c-.027-.027-.046-.046-.066-.074-.652-.699-1.3-1.406-1.96-2.105-.645-.688-1.294-1.367-1.942-2.051-.04-.04-.067-.07-.106-.106a189 189 0 0 0-1.949-2.007c-.684-.696-1.36-1.38-2.055-2.063a208 208 0 0 0-4.195-4.07c-.71-.672-1.426-1.344-2.148-2.008a236 236 0 0 0-4.387-3.969 218 218 0 0 0-2.254-1.953c-.75-.648-1.512-1.293-2.274-1.93-.769-.644-1.535-1.28-2.312-1.921a253 253 0 0 0-9.594-7.461q-1.132-.837-2.281-1.672a210 210 0 0 0-2.719-1.938q-4.082-2.864-8.336-5.613a159 159 0 0 0-2.785-1.77C944.945 10.7 881.598-5.343 820.723 3.597c-66.368 9.739-125.875 48.044-172.852 95.91-39.203 39.95-70.758 86.481-100.816 133.825.039.059.07.113.105.172l-.097.133-.106-.164.098-.141-64.668 81.344c-14.977 26.086-32.93 50.613-52.63 73.277-7.37 8.477-15.218 16.563-23.445 24.254-2.425 2.75-4.484 4.973-6.078 6.52-6.91 6.742-14.511 12.593-22.629 17.609a387 387 0 0 1-21.011 14.8c-11.61 7.61-23.79 14.364-36.434 20.102-16.508 7.489-33.37 14.446-50.914 19.13-17.562 4.683-35.824 7.35-53.926 8.652-12.882.925-25.691 1.039-38.55-.344-17.083-1.832-34.145-4.293-50.633-9.223C109.742 484.555 93.668 477.84 78.48 470c-15.093-7.797-28.777-18.285-41.816-29.082A181.6 181.6 0 0 1 9.98 413.57c-3.109-3.949-6.226-7.87-9.19-11.894.667 16.125 2.542 32.18 5.425 48.07l.062.113c.567 1.028 1.13 2.063 1.711 3.082.094.176.2.356.293.536.301.53.606 1.058.903 1.582.75 1.316 1.507 2.62 2.277 3.921.45.774.914 1.543 1.375 2.317.379.625.762 1.265 1.148 1.89.47.778.942 1.547 1.434 2.32.102.169.203.333.316.5.407.669.829 1.333 1.25 2a318 318 0 0 0 6.317 9.56c.582.855 1.176 1.703 1.77 2.554q.482.697.976 1.383c.531.762 1.078 1.516 1.621 2.266.07.105.145.203.223.308.593.824 1.191 1.649 1.808 2.469q.38.522.766 1.031c1.27 1.7 2.55 3.387 3.855 5.055a147.967 147.967 0 0 0 1.797 2.285c.23.305.48.613.727.918.492.617.984 1.226 1.48 1.84.645.793 1.293 1.59 1.946 2.37a267 267 0 0 0 2.542 3.028c17.114 20.09 36.82 37.883 58.876 52.48 60.785 40.22 136.175 59.7 207.726 45.81 71.55-13.9 143.379-53.18 188.25-110.606 14.598-18.676 31.703-40.29 49.39-61.39.04.05.09.109.13.16 3.707-5.337 71.484-102.907 72.558-104.165l-.074-.101c.039-.051.078-.11.125-.16 34.43-45.774 75.273-86.723 121.008-121.22 32.437-24.464 69.789-46.429 110.414-46.112 2.2.02 4.383.113 6.562.265 9.239-1.457 18.82-2.879 28.18-2.515a161.6 161.6 0 0 1 31.668 4.39c10.176 2.465 19.79 6.809 29.352 10.973 5.882 2.562 11.52 5.664 16.902 9.164 26.785 17.43 49.289 40.523 66.387 67.492 8.203 12.945 14.14 26.988 19.867 41.172 4.164 10.305 7.383 20.996 9.691 31.871 5.606 26.387 8.16 54.004 5.238 80.902-.656 6.024-1.37 12.051-2.246 18.063a257 257 0 0 0 5.028-8.016c29.879-49.68 43.629-108.133 44.12-166.105a388 388 0 0 0-3.155-52.63Zm0 0"/></g></g></g></g><g clip-path="url(#aQ)"><g mask="url(#aR)"><g clip-path="url(#aS)" transform="translate(360)"><path fill="#f97316" d="M531.938 247.727c10.234-13.903 21.316-27.153 34.132-38.758 12.856-11.633 26.797-22.156 41.668-31.086 14.817-8.895 30.606-15.793 46.649-22.18 11.945-4.754 24.515-8.133 37.156-10.426 16.633-3.015 33.61-5.476 50.555-5.457 16.804.016 33.797 2.25 50.25 5.457a192.3 192.3 0 0 1 34.789 10.262c15.32 6.145 30.426 12.645 44.34 21.582 13.77 8.844 27.058 19.074 38.718 30.582 18.551 18.309 33.215 40.07 43.614 63.824a373 373 0 0 0 1.136-26.097 389 389 0 0 0-3.156-52.63q-.207-.63-.414-1.269l-.379-1.14a379 379 0 0 0-1.617-4.758c-.274-.778-.543-1.559-.824-2.336a246 246 0 0 0-1.696-4.64c-.242-.657-.484-1.31-.738-1.958q-.279-.754-.57-1.496c-.313-.808-.63-1.621-.95-2.43-.253-.652-.519-1.304-.777-1.957a295 295 0 0 0-1.355-3.312 232 232 0 0 0-1.508-3.57c-.32-.754-.656-1.52-.988-2.27q-1.051-2.399-2.149-4.785c-.363-.797-.734-1.598-1.11-2.387-.269-.582-.538-1.16-.816-1.734-.187-.383-.367-.774-.554-1.156q-.745-1.542-1.508-3.07c-.48-.962-.957-1.927-1.45-2.88-.179-.363-.366-.714-.546-1.07-.278-.535-.555-1.078-.844-1.613a277 277 0 0 0-4.976-9.117c-.301-.536-.61-1.059-.922-1.598l-.368-.633c-.246-.426-.5-.855-.753-1.285a284 284 0 0 0-3.676-6.05c-.34-.544-.676-1.087-1.024-1.626a214 214 0 0 0-2.183-3.394 207 207 0 0 0-3.067-4.57 146 146 0 0 0-1.566-2.266s0-.012-.012-.012c-.508-.723-1.023-1.445-1.535-2.172a231 231 0 0 0-3.59-4.898 143 143 0 0 0-1.441-1.903q-.843-1.112-1.715-2.218c-.543-.704-1.094-1.391-1.648-2.086a213.932 213.932 0 0 0-3.676-4.484c-.61-.723-1.215-1.446-1.836-2.169a803 803 0 0 0-1.86-2.156 268 268 0 0 0-3.816-4.258c-.648-.699-1.3-1.406-1.96-2.105-.642-.688-1.294-1.367-1.942-2.051-.04-.04-.067-.07-.106-.106a189 189 0 0 0-1.949-2.007c-.684-.696-1.36-1.38-2.055-2.063a208 208 0 0 0-4.195-4.07c-.71-.672-1.426-1.344-2.148-2.008a236 236 0 0 0-4.387-3.969 218 218 0 0 0-2.254-1.953 287.18 287.18 0 0 0-4.586-3.852 253 253 0 0 0-9.594-7.46q-1.133-.837-2.277-1.672a262.876 262.876 0 0 0-11.059-7.55 159 159 0 0 0-2.785-1.77c-52.09-32.739-115.437-48.782-176.312-39.84-66.368 9.738-125.875 48.043-172.852 95.91-39.203 39.949-70.758 86.48-100.816 133.824.039.059.07.113.105.172l-.098.133-.105-.164.098-.141-33.543 42.191a1167 1167 0 0 1-5.73 15.207c-20.247 52.516-43.098 105.016-75.59 151.262-16.883 24.028-35.524 47.309-57.383 67.031-21.68 19.559-46.016 37.168-72.563 49.524C128.055 566.55 110.32 573.625 91.84 578c-18.778 4.445-38.29 7.055-57.567 7.84-11.433.469-22.828-.028-34.18-1.145 48.262 19.48 101.27 26.563 152.321 16.653 71.55-13.899 143.379-53.184 188.25-110.61 14.598-18.672 31.703-40.285 49.39-61.386.04.05.09.105.13.156 3.707-5.332 71.484-102.906 72.558-104.164-.027-.031-.047-.063-.074-.102.039-.05.078-.105.125-.156a616 616 0 0 1 69.172-77.371Zm0 0"/></g></g><g mask="url(#aT)"><g clip-path="url(#aU)" transform="translate(360)"><path fill="#065f46" d="M531.938 247.727c10.234-13.903 21.316-27.153 34.132-38.758 12.856-11.633 26.797-22.156 41.668-31.086 14.817-8.895 30.606-15.793 46.649-22.18 11.945-4.754 24.515-8.133 37.156-10.426 16.633-3.015 33.61-5.476 50.555-5.457 16.804.016 33.797 2.25 50.25 5.457a192.3 192.3 0 0 1 34.789 10.262c15.32 6.145 30.426 12.645 44.34 21.582 13.77 8.844 27.058 19.074 38.718 30.582 18.551 18.309 33.215 40.07 43.614 63.824a373 373 0 0 0 1.136-26.097 389 389 0 0 0-3.156-52.63q-.207-.63-.414-1.269l-.379-1.14a379 379 0 0 0-1.617-4.758c-.274-.778-.543-1.559-.824-2.336a246 246 0 0 0-1.696-4.64c-.242-.657-.484-1.31-.738-1.958q-.279-.754-.57-1.496c-.313-.808-.63-1.621-.95-2.43-.253-.652-.519-1.304-.777-1.957a295 295 0 0 0-1.355-3.312 232 232 0 0 0-1.508-3.57c-.32-.754-.656-1.52-.988-2.27q-1.051-2.399-2.149-4.785c-.363-.797-.734-1.598-1.11-2.387-.269-.582-.538-1.16-.816-1.734-.187-.383-.367-.774-.554-1.156q-.745-1.542-1.508-3.07c-.48-.962-.957-1.927-1.45-2.88-.179-.363-.366-.714-.546-1.07-.278-.535-.555-1.078-.844-1.613a277 277 0 0 0-4.976-9.117c-.301-.536-.61-1.059-.922-1.598l-.368-.633c-.246-.426-.5-.855-.753-1.285a284 284 0 0 0-3.676-6.05c-.34-.544-.676-1.087-1.024-1.626a214 214 0 0 0-2.183-3.394 207 207 0 0 0-3.067-4.57 146 146 0 0 0-1.566-2.266s0-.012-.012-.012c-.508-.723-1.023-1.445-1.535-2.172a231 231 0 0 0-3.59-4.898 143 143 0 0 0-1.441-1.903q-.843-1.112-1.715-2.218c-.543-.704-1.094-1.391-1.648-2.086a213.932 213.932 0 0 0-3.676-4.484c-.61-.723-1.215-1.446-1.836-2.169a803 803 0 0 0-1.86-2.156 268 268 0 0 0-3.816-4.258c-.648-.699-1.3-1.406-1.96-2.105-.642-.688-1.294-1.367-1.942-2.051-.04-.04-.067-.07-.106-.106a189 189 0 0 0-1.949-2.007c-.684-.696-1.36-1.38-2.055-2.063a208 208 0 0 0-4.195-4.07c-.71-.672-1.426-1.344-2.148-2.008a236 236 0 0 0-4.387-3.969 218 218 0 0 0-2.254-1.953 287.18 287.18 0 0 0-4.586-3.852 253 253 0 0 0-9.594-7.46q-1.133-.837-2.277-1.672a262.876 262.876 0 0 0-11.059-7.55 159 159 0 0 0-2.785-1.77c-52.09-32.739-115.437-48.782-176.312-39.84-66.368 9.738-125.875 48.043-172.852 95.91-39.203 39.949-70.758 86.48-100.816 133.824.039.059.07.113.105.172l-.098.133-.105-.164.098-.141-33.543 42.191a1167 1167 0 0 1-5.73 15.207c-20.247 52.516-43.098 105.016-75.59 151.262-16.883 24.028-35.524 47.309-57.383 67.031-21.68 19.559-46.016 37.168-72.563 49.524C128.055 566.55 110.32 573.625 91.84 578c-18.778 4.445-38.29 7.055-57.567 7.84-11.433.469-22.828-.028-34.18-1.145 48.262 19.48 101.27 26.563 152.321 16.653 71.55-13.899 143.379-53.184 188.25-110.61 14.598-18.672 31.703-40.285 49.39-61.386.04.05.09.105.13.156 3.707-5.332 71.484-102.906 72.558-104.164-.027-.031-.047-.063-.074-.102.039-.05.078-.105.125-.156a616 616 0 0 1 69.172-77.371Zm0 0"/></g></g></g><g clip-path="url(#aV)" mask="url(#aW)"><g clip-path="url(#aX)" transform="translate(550)"><g clip-path="url(#aY)"><path fill="#065f46" d="M720.902 110.246a231 231 0 0 0-3.59-4.898c-.476-.641-.953-1.274-1.44-1.903q-.844-1.112-1.716-2.218c-.543-.704-1.093-1.391-1.648-2.086a213.917 213.917 0 0 0-3.676-4.484c-.61-.723-1.21-1.446-1.832-2.169l-1.863-2.156c-1.23-1.402-2.485-2.8-3.75-4.184-.028-.027-.043-.046-.067-.074-.648-.699-1.3-1.406-1.96-2.105-.641-.688-1.294-1.367-1.942-2.051-.04-.04-.066-.07-.106-.106a189 189 0 0 0-1.949-2.007c-.683-.696-1.36-1.38-2.054-2.063a218 218 0 0 0-4.192-4.07c-.715-.672-1.43-1.344-2.152-2.008a236 236 0 0 0-4.387-3.969 269 269 0 0 0-6.84-5.804 253 253 0 0 0-9.593-7.461q-1.133-.837-2.278-1.672a254.216 254.216 0 0 0-11.059-7.55 159 159 0 0 0-2.785-1.77c-52.09-32.739-115.437-48.782-176.312-39.84-66.367 9.738-125.875 48.043-172.852 95.91-35.93 36.613-65.43 78.758-93.246 121.988-1.11 7.293-2.34 14.563-3.836 21.832a1141 1141 0 0 1-6.379 29.168c-8.066 34.61-17.96 68.817-30.921 101.938-14.41 36.82-31.102 72.765-53.016 105.773-19.824 29.852-43.793 57.39-71.328 80.367-13.274 11.074-27.028 21.63-41.586 30.957 58.156-18.668 113.234-53.593 150.11-100.781 14.597-18.672 31.698-40.285 49.386-61.387.039.051.09.106.129.157 3.375-4.852 59.851-86.153 70.754-101.63.347-.757.703-1.511 1.054-2.269 7.31-15.613 16.06-30.562 25.508-44.984 20.961-31.985 45.399-62.13 73.438-88.18 15.82-14.703 32.816-28.148 50.226-40.918 14.875-10.906 30.422-20.719 46.762-29.285 42.61-22.356 88.774-37.914 137.188-39.555 9.714-.328 19.402.156 29.043 1.383 12.367 1.57 24.765 3.059 36.843 6.227 17.246 4.52 34.227 11.504 49.977 20.004a1 1 0 0 1-.047-.063Zm0 0"/></g></g></g><g clip-path="url(#aZ)" mask="url(#ba)"><g clip-path="url(#bb)" transform="translate(631)"><g clip-path="url(#bc)"><path fill="#065f46" d="M187.863 301.535c4.602-15.094 10.79-29.687 17.64-43.89 12.188-25.262 28.13-48.207 46.079-69.715 15.648-18.739 33.363-35.59 52.625-50.578 23.52-18.301 47.793-34.852 74.25-48.653 26.594-13.87 54.57-25.441 82.824-35.46 24.864-8.817 50.317-16.626 76.11-22.243q3.422-.742 6.851-1.426C497.504 6.363 444.203-3.973 392.684 3.598c-66.368 9.738-125.875 48.043-172.852 95.91-6.285 6.41-12.363 12.992-18.277 19.707-6.032 41.508-14.782 82.648-27.582 122.59-16.473 51.402-36.864 101.695-62.32 149.312-11.837 22.14-24.5 43.906-38.02 65.059-15.832 24.77-33.27 48.258-51.586 71.258a881 881 0 0 1-21.035 25.394c26.265-17.156 49.812-38.02 68.613-62.082 14.598-18.672 31.703-40.289 49.387-61.39.043.05.093.109.133.16 2.73-3.93 40.265-57.957 60.242-86.606 1.894-14.082 4.293-27.7 8.465-41.375Zm0 0"/></g></g></g><g clip-path="url(#bd)" mask="url(#be)"><g clip-path="url(#bf)" transform="translate(753)"><g clip-path="url(#bg)"><path fill="#065f46" d="M270.695 3.602c-.847.125-1.683.265-2.523.402a651 651 0 0 0-23.07 19.582c-10.375 9.246-19.77 19.39-29.727 29.043-9.816 9.516-19.441 19.262-29.059 28.98-17.84 18.02-34.617 37.059-50.332 56.954-6.074 8.054-11.988 16.226-17.695 24.542-24.008 34.958-44.84 72.114-61.848 110.965-11.066 26.989-20.629 54.555-30.254 82.086C18.185 379.031 9.853 401.72.863 424.188c6.012-8.649 18.211-26.211 30.703-44.168 3.075-22.286 7.418-44.243 13.774-65.926 7.246-24.711 16.84-48.715 27.531-72.137 8.895-19.484 19.219-38.316 30.914-56.262 24.168-37.086 53.809-72.226 88.555-99.886 34.476-27.446 71.066-51.11 111.61-68.618 11.312-4.882 22.648-9.53 34.144-13.742-22.34-3.047-45.035-3.136-67.387.149Zm0 0"/></g></g></g><g mask="url(#bh)"><g clip-path="url(#bi)" transform="translate(839 82)"><g clip-path="url(#bj)"><path fill="#065f46" d="M.367 212.297C43.747 152.535 95.574 97.87 158.38 59.023 221.184 20.172 295.695-2.105 369.21 4.926c-75.266-13.938-154.137 9.293-218.11 51.32C87.13 98.277 36.505 157.81.368 212.296m0 0"/></g></g></g><g mask="url(#bk)"><g clip-path="url(#bl)" transform="translate(566 327)"><g clip-path="url(#bm)"><path fill="#065f46" d="M166.453 1.016C136.801 98.574 86.938 188.53.836 253.898 86.988 193.984 142.117 96.793 166.453 1.016m0 0"/></g></g></g><g mask="url(#bn)"><g clip-path="url(#bo)" transform="translate(804 8)"><g clip-path="url(#bp)"><path fill="#065f46" d="M491.695 181.18C477.68 110.543 425.41 49.918 359.648 21.45 293.887-7.017 216.504-4.259 150.766 24.272 85.023 52.801 31.02 105.832.793 168.383c69.352-65.54 162.621-107.899 257.746-105.567 95.121 2.332 190.23 53.024 233.149 118.364Zm0 0"/></g></g></g><g mask="url(#bq)"><g clip-path="url(#br)" transform="translate(804 8)"><g clip-path="url(#bs)"><path fill="#065f46" d="M491.695 181.18C477.68 110.543 425.41 49.918 359.648 21.45 293.887-7.017 216.504-4.259 150.766 24.272 85.023 52.801 31.02 105.832.793 168.383c69.352-65.54 162.621-107.899 257.746-105.567 95.121 2.332 190.23 53.024 233.149 118.364Zm0 0"/></g></g></g><g mask="url(#bt)"><g clip-path="url(#bu)" transform="translate(897 17)"><g clip-path="url(#bv)"><path fill="#065f46" d="M311.86 53.184c-17.364-12.954-36.11-23.942-55.946-32.68-20.773-8.426-42.113-14.93-64.305-18.352-19.976-2.265-40.168-2.035-60.132.309-4.809.742-9.602 1.629-14.422 2.273-16.868 2.754-33.762 7.907-49.621 14.246-10.914 4.813-21.547 10.258-31.797 16.372-5.239 3.12-10.274 6.535-15.414 9.793a249 249 0 0 0-7.348 4.863c-1.29.879-2.57 1.777-3.848 2.68-.457.32-.91.66-1.37.976a340 340 0 0 0-7.223 6.008c41.113-22.836 87.125-35.473 134.015-38.59 46.73-3.105 95.395 3.73 138.715 21.79 20.844 8.687 40.754 18.706 59.012 32.097a361 361 0 0 1 16.058 12.46c-11.187-12.367-23.375-23.863-36.382-34.245Zm0 0"/></g></g></g><g mask="url(#bw)"><g clip-path="url(#bx)" transform="translate(205 13)"><g clip-path="url(#by)"><path fill="#065f46" d="M.836 180.922C14.852 110.285 67.117 49.66 132.879 21.192c65.766-28.465 143.144-25.708 208.883 2.824 65.742 28.527 119.746 81.554 149.976 144.109-69.355-65.54-162.625-107.898-257.746-105.566C138.867 64.89 43.758 115.582.84 180.922Zm0 0"/></g></g></g><g mask="url(#bz)"><g clip-path="url(#bA)" transform="translate(256 21)"><g clip-path="url(#bB)"><path fill="#065f46" d="M36.664 53.926c17.363-12.957 36.11-23.942 55.945-32.68 20.774-8.426 42.114-14.93 64.301-18.351 19.98-2.27 40.172-2.036 60.137.304 4.808.746 9.601 1.633 14.422 2.278 16.867 2.753 33.761 7.906 49.62 14.246 10.915 4.808 21.544 10.257 31.798 16.37 5.238 3.122 10.273 6.536 15.414 9.794 2.48 1.57 4.922 3.207 7.344 4.86 1.293.882 2.574 1.78 3.851 2.683.457.32.91.66 1.371.976a342 342 0 0 1 7.219 6.004c-41.11-22.832-87.121-35.472-134.016-38.586-46.726-3.105-95.39 3.73-138.71 21.79C54.511 52.3 34.604 62.32 16.347 75.71A359 359 0 0 0 .289 88.17C11.477 75.806 23.664 64.31 36.668 53.927Zm0 0"/></g></g></g><g clip-path="url(#bC)"><path fill="#065f46" d="M575.734 314.723c0 1.437-.035 2.87-.105 4.308a93 93 0 0 1-.32 4.293 87 87 0 0 1-.528 4.274 82 82 0 0 1-.734 4.242 85 85 0 0 1-.945 4.203 85 85 0 0 1-1.149 4.152 91 91 0 0 1-1.348 4.09 88.61 88.61 0 0 1-5.234 11.8 86 86 0 0 1-4.426 7.384 85 85 0 0 1-2.48 3.523 89 89 0 0 1-5.461 6.656 89 89 0 0 1-2.969 3.118 83 83 0 0 1-3.12 2.968 86 86 0 0 1-6.657 5.465 87.918 87.918 0 0 1-18.687 10.586 88 88 0 0 1-16.462 4.996q-2.115.418-4.242.735a87.5 87.5 0 0 1-12.875.949 87.8 87.8 0 0 1-25.472-3.777 89 89 0 0 1-8.106-2.903 84 84 0 0 1-3.937-1.742 96 96 0 0 1-3.848-1.938 86 86 0 0 1-7.383-4.425 92 92 0 0 1-3.523-2.48 89 89 0 0 1-3.395-2.65 93 93 0 0 1-3.262-2.816 86 86 0 0 1-3.117-2.968 89 89 0 0 1-2.969-3.118 89 89 0 0 1-5.464-6.656 87.698 87.698 0 0 1-4.781-7.16 91 91 0 0 1-2.126-3.746 89 89 0 0 1-1.933-3.848 80 80 0 0 1-1.746-3.937 86 86 0 0 1-1.551-4.016 91 91 0 0 1-1.352-4.09 85 85 0 0 1-1.148-4.152 85 85 0 0 1-.942-4.203 86.79 86.79 0 0 1-1.582-12.809 88 88 0 0 1 .317-12.906 87 87 0 0 1 1.265-8.52 86 86 0 0 1 .942-4.199q.522-2.09 1.148-4.152a88 88 0 0 1 6.582-15.89 91 91 0 0 1 4.426-7.387 92 92 0 0 1 2.48-3.52 85 85 0 0 1 2.653-3.394q1.366-1.667 2.812-3.262a90 90 0 0 1 2.97-3.121 93 93 0 0 1 3.116-2.97 88.857 88.857 0 0 1 6.656-5.46 88 88 0 0 1 18.692-10.59 86 86 0 0 1 4.02-1.547 85 85 0 0 1 4.086-1.351q2.061-.627 4.152-1.149a86 86 0 0 1 8.445-1.68 87.4 87.4 0 0 1 12.875-.949 88 88 0 0 1 17.117 1.684 87 87 0 0 1 4.204.945q2.085.521 4.148 1.149 2.062.623 4.09 1.351c1.351.48 2.691 1 4.02 1.547a91 91 0 0 1 3.933 1.746 86 86 0 0 1 3.848 1.938 87.917 87.917 0 0 1 10.906 6.906 86 86 0 0 1 3.394 2.648 83 83 0 0 1 3.262 2.813 90 90 0 0 1 3.121 2.969 90 90 0 0 1 2.969 3.12 88.859 88.859 0 0 1 7.941 10.176 88 88 0 0 1 9.66 19.188c.48 1.352.934 2.715 1.348 4.09q.626 2.062 1.149 4.152a86 86 0 0 1 1.68 8.446 87 87 0 0 1 .527 4.273q.21 2.144.32 4.293a88 88 0 0 1 .105 4.305m0 0"/></g><path fill="#fff" fill-rule="evenodd" d="M544.395 293.512v74.965a2.177 2.177 0 0 1-2.172 2.171H433.758a2.177 2.177 0 0 1-2.172-2.171v-74.965Zm-2.172-21.75c1.195 0 2.172.976 2.172 2.172v17.07h-112.81v-17.07c0-1.196.978-2.172 2.173-2.172h8.984v5.957c0 3.215 2.621 5.832 5.836 5.832s5.836-2.617 5.836-5.832v-5.957h14.606v5.957a5.84 5.84 0 0 0 5.832 5.832c3.214 0 5.836-2.617 5.836-5.832v-5.957h14.605v5.957c0 3.215 2.621 5.832 5.836 5.832s5.836-2.617 5.836-5.832v-5.957h14.605v5.957a5.84 5.84 0 0 0 5.832 5.832c3.215 0 5.836-2.617 5.836-5.832v-5.957Zm-24.192 52.16h15.067v15.062H518.03Zm0-22.95h15.067v15.067H518.03Zm-25.047 45.895h15.063v15.067h-15.063Zm0-22.945h15.063v15.062h-15.063Zm0-22.95h15.063v15.067h-15.063Zm-25.05 45.895H483v15.067h-15.066Zm0-22.945H483v15.062h-15.066Zm0-22.95H483v15.067h-15.066Zm-25.051 45.895h15.066v15.067h-15.066Zm0-22.945h15.066v15.062h-15.066Zm0-22.95h15.066v15.067h-15.066Zm0 0"/><path fill="#fff" fill-rule="evenodd" d="M448.578 258.797a3.3 3.3 0 0 1 2.352.976q.469.469.722 1.079.253.615.254 1.277v15.586q-.001.662-.254 1.277-.253.61-.722 1.078a3.307 3.307 0 0 1-3.625.723 3.33 3.33 0 0 1-2.055-3.078v-15.586a3.34 3.34 0 0 1 .973-2.356 3.33 3.33 0 0 1 2.355-.976M474.852 258.797q.663.001 1.273.254a3.33 3.33 0 0 1 2.055 3.078v15.586q.002.662-.254 1.277a3.329 3.329 0 0 1-6.402-1.277v-15.586q0-.662.253-1.277.253-.61.723-1.079a3.322 3.322 0 0 1 2.352-.977M501.129 258.797a3.32 3.32 0 0 1 2.351.976q.47.469.723 1.079.253.615.254 1.277v15.586q-.001.662-.254 1.277-.253.61-.723 1.078a3.322 3.322 0 0 1-4.707 0 3.3 3.3 0 0 1-.718-1.078 3.3 3.3 0 0 1-.254-1.277v-15.586c0-.442.082-.867.254-1.277q.251-.61.718-1.079a3.33 3.33 0 0 1 2.356-.976M527.402 258.797q.664.001 1.274.254a3.33 3.33 0 0 1 2.054 3.078v15.586q.001.662-.25 1.277a3.35 3.35 0 0 1-1.804 1.801 3.3 3.3 0 0 1-2.547 0 3.35 3.35 0 0 1-1.8-1.8 3.3 3.3 0 0 1-.255-1.278v-15.586q.001-.662.254-1.277.253-.61.723-1.079a3.322 3.322 0 0 1 2.352-.977m0 0"/><path fill="#fff" d="m471.938 306.668 1.804 1.805 5.25-5.25 2.66 2.656-7.91 7.91-4.46-4.46ZM522.04 329.613l1.8 1.809 5.254-5.254 2.656 2.66-7.91 7.91-4.461-4.465ZM446.89 352.563l1.801 1.804 5.254-5.25 2.657 2.656-7.91 7.91-4.462-4.46Zm0 0"/><g clip-path="url(#bD)"><path fill="#065f46" fill-rule="evenodd" d="M1021.715 402.379c48.312 0 87.726-39.402 87.726-87.715 0-48.328-39.414-87.73-87.726-87.73-48.317 0-87.727 39.402-87.727 87.73 0 48.313 39.41 87.715 87.727 87.715m0 0"/></g><path fill="#fff" d="m980.96 371.14 15.317-4.03-11.957-11.958c-5.656 4.61-7.523 10.332-3.36 15.989m77.524-16.472-14.062 3.71 15.504 15.5c7.035-6.288 6.11-13.433-1.442-19.21m-5.336-97.156c-17.367-17.367-45.52-17.367-62.878 0-8.043 8.05-13.024 19.156-13.024 31.433 0 20.371 16.68 36.645 28.66 52.282l15.801 20.609 15.813-20.61c11.976-15.632 28.648-31.91 28.648-52.28-.008-12.274-4.977-23.384-13.02-31.434m-36.375 104.187-11.68-15.219c-6.972 1.391-13.011 3.614-17.581 6.422l13.062 13.063Zm8.567 1.711-2.102 2.746c-.785 1.028-2.32.985-3.078-.031l-.86-1.133-35.308 9.317c8.64 7.285 24.16 10.515 37.727 10.515 13.086 0 26.441-2.87 35.133-8.601l-16.723-16.723Zm12.984-16.93-9.172 11.957 24.938-6.582c-4.309-2.308-9.684-4.16-15.766-5.375m-.062-74.277c-9.14-9.137-23.969-9.137-33.106 0-9.136 9.14-9.136 23.969 0 33.106 9.137 9.136 23.965 9.136 33.106 0 9.136-9.141 9.136-23.965 0-33.106m-16.559-10.695c15.055 0 27.25 12.195 27.25 27.238 0 15.059-12.195 27.25-27.25 27.25-15.043 0-27.238-12.191-27.238-27.25 0-15.039 12.195-27.238 27.238-27.238m0 0"/></g></svg>